<svg xmlns="http://www.w3.org/2000/svg" xmlns:xlink="http://www.w3.org/1999/xlink" width="500" zoomAndPan="magnify" viewBox="0 0 375 374.999991" height="500" preserveAspectRatio="xMidYMid meet" version="1.0"><defs><g/></defs><g fill="#db2624" fill-opacity="1"><g transform="translate(24.342776, 131)"><g><path d="M 37.53125 -26.953125 C 38.363281 -26.953125 38.96875 -27.140625 39.34375 -27.515625 C 39.71875 -27.890625 40.300781 -28.679688 41.09375 -29.890625 L 49.640625 -42.921875 C 49.921875 -43.390625 50.234375 -43.703125 50.578125 -43.859375 C 50.929688 -44.023438 51.296875 -44.109375 51.671875 -44.109375 L 52.859375 -44.109375 C 53.515625 -44.109375 53.992188 -43.929688 54.296875 -43.578125 C 54.597656 -43.234375 54.75 -42.6875 54.75 -41.9375 L 54.75 -6.296875 L 54.046875 -6.296875 L 54.046875 -41.9375 C 54.046875 -42.3125 53.960938 -42.648438 53.796875 -42.953125 C 53.640625 -43.253906 53.328125 -43.40625 52.859375 -43.40625 L 51.8125 -43.40625 C 51.488281 -43.40625 51.207031 -43.359375 50.96875 -43.265625 C 50.738281 -43.171875 50.484375 -42.890625 50.203125 -42.421875 L 41.65625 -29.546875 C 40.820312 -28.285156 40.179688 -27.421875 39.734375 -26.953125 C 39.285156 -26.484375 38.550781 -26.25 37.53125 -26.25 C 36.5 -26.25 35.757812 -26.484375 35.3125 -26.953125 C 34.875 -27.421875 34.234375 -28.285156 33.390625 -29.546875 L 24.859375 -42.421875 C 24.578125 -42.890625 24.304688 -43.171875 24.046875 -43.265625 C 23.796875 -43.359375 23.503906 -43.40625 23.171875 -43.40625 L 22.125 -43.40625 C 21.65625 -43.40625 21.347656 -43.253906 21.203125 -42.953125 C 21.066406 -42.648438 21 -42.3125 21 -41.9375 L 21 -6.296875 L 20.296875 -6.296875 L 20.296875 -41.9375 C 20.296875 -42.6875 20.445312 -43.234375 20.75 -43.578125 C 21.0625 -43.929688 21.519531 -44.109375 22.125 -44.109375 L 23.3125 -44.109375 C 23.6875 -44.109375 24.0625 -44.023438 24.4375 -43.859375 C 24.8125 -43.703125 25.140625 -43.390625 25.421875 -42.921875 L 33.953125 -29.890625 C 34.742188 -28.679688 35.328125 -27.890625 35.703125 -27.515625 C 36.078125 -27.140625 36.6875 -26.953125 37.53125 -26.953125 Z M 25.828125 0 C 26.722656 0 27.367188 -0.195312 27.765625 -0.59375 C 28.160156 -0.988281 28.359375 -1.628906 28.359375 -2.515625 L 28.359375 -27.171875 L 32.484375 -19.53125 C 32.910156 -18.738281 33.414062 -18.164062 34 -17.8125 C 34.582031 -17.46875 35.316406 -17.296875 36.203125 -17.296875 L 39 -17.296875 C 39.882812 -17.296875 40.617188 -17.46875 41.203125 -17.8125 C 41.785156 -18.164062 42.285156 -18.738281 42.703125 -19.53125 L 46.84375 -27.171875 L 46.84375 -2.515625 C 46.84375 -1.628906 47.039062 -0.988281 47.4375 -0.59375 C 47.832031 -0.195312 48.472656 0 49.359375 0 L 60.140625 0 C 61.023438 0 61.664062 -0.195312 62.0625 -0.59375 C 62.457031 -0.988281 62.65625 -1.628906 62.65625 -2.515625 L 62.65625 -47.890625 C 62.65625 -48.773438 62.457031 -49.414062 62.0625 -49.8125 C 61.664062 -50.207031 61.023438 -50.40625 60.140625 -50.40625 L 48.796875 -50.40625 C 48.054688 -50.40625 47.4375 -50.242188 46.9375 -49.921875 C 46.445312 -49.597656 45.992188 -49.0625 45.578125 -48.3125 L 39.34375 -36.890625 C 39.113281 -36.472656 38.914062 -36.171875 38.75 -35.984375 C 38.59375 -35.796875 38.375 -35.703125 38.09375 -35.703125 L 37.453125 -35.703125 C 37.171875 -35.703125 36.945312 -35.796875 36.78125 -35.984375 C 36.625 -36.171875 36.429688 -36.472656 36.203125 -36.890625 L 29.890625 -48.3125 C 29.472656 -49.0625 29.019531 -49.597656 28.53125 -49.921875 C 28.039062 -50.242188 27.421875 -50.40625 26.671875 -50.40625 L 15.40625 -50.40625 C 14.519531 -50.40625 13.878906 -50.207031 13.484375 -49.8125 C 13.085938 -49.414062 12.890625 -48.773438 12.890625 -47.890625 L 12.890625 -2.515625 C 12.890625 -1.628906 13.085938 -0.988281 13.484375 -0.59375 C 13.878906 -0.195312 14.519531 0 15.40625 0 Z M 28.078125 0.0625 L 18.96875 7.625 C 18.78125 7.8125 18.488281 7.972656 18.09375 8.109375 C 17.695312 8.253906 17.265625 8.328125 16.796875 8.328125 L 6.375 8.328125 C 5.25 8.328125 4.429688 8.070312 3.921875 7.5625 C 3.410156 7.050781 3.15625 6.234375 3.15625 5.109375 L 3.15625 -40.265625 C 3.15625 -40.867188 3.234375 -41.378906 3.390625 -41.796875 C 3.554688 -42.210938 3.800781 -42.5625 4.125 -42.84375 L 13.15625 -50.484375 C 13.394531 -50.671875 13.710938 -50.820312 14.109375 -50.9375 C 14.503906 -51.050781 14.9375 -51.109375 15.40625 -51.109375 L 26.671875 -51.109375 C 27.554688 -51.109375 28.289062 -50.921875 28.875 -50.546875 C 29.457031 -50.171875 30.007812 -49.539062 30.53125 -48.65625 L 35.28125 -39.90625 L 35.921875 -41.03125 C 36.109375 -41.351562 36.304688 -41.664062 36.515625 -41.96875 C 36.722656 -42.269531 36.941406 -42.515625 37.171875 -42.703125 L 46.203125 -50.265625 C 46.578125 -50.546875 46.960938 -50.753906 47.359375 -50.890625 C 47.753906 -51.035156 48.234375 -51.109375 48.796875 -51.109375 L 60.140625 -51.109375 C 61.265625 -51.109375 62.082031 -50.851562 62.59375 -50.34375 C 63.101562 -49.832031 63.359375 -49.015625 63.359375 -47.890625 L 63.359375 -2.515625 C 63.359375 -1.910156 63.273438 -1.394531 63.109375 -0.96875 C 62.953125 -0.550781 62.710938 -0.207031 62.390625 0.0625 L 53.28125 7.625 C 53.09375 7.8125 52.800781 7.972656 52.40625 8.109375 C 52.007812 8.253906 51.578125 8.328125 51.109375 8.328125 L 40.328125 8.328125 C 39.160156 8.328125 38.332031 8.070312 37.84375 7.5625 C 37.351562 7.050781 37.109375 6.234375 37.109375 5.109375 L 37.109375 -13.375 L 32.984375 -9.9375 C 32.609375 -9.613281 32.175781 -9.367188 31.6875 -9.203125 C 31.195312 -9.046875 30.625 -8.96875 29.96875 -8.96875 L 29.0625 -8.96875 L 29.0625 -2.515625 C 29.0625 -1.910156 28.976562 -1.394531 28.8125 -0.96875 C 28.644531 -0.550781 28.398438 -0.207031 28.078125 0.0625 Z M 28.078125 0.0625 "/></g></g></g><g fill="#db2624" fill-opacity="1"><g transform="translate(90.780177, 131)"><g><path d="M 29.40625 8.328125 L 18.0625 8.328125 C 16.894531 8.328125 16.066406 8.070312 15.578125 7.5625 C 15.085938 7.050781 14.84375 6.234375 14.84375 5.109375 L 14.84375 -3.640625 L 4.265625 -17.78125 C 3.148438 -19.28125 2.40625 -20.585938 2.03125 -21.703125 C 1.65625 -22.828125 1.46875 -24.53125 1.46875 -26.8125 L 1.46875 -40.265625 C 1.46875 -40.867188 1.546875 -41.378906 1.703125 -41.796875 C 1.867188 -42.210938 2.117188 -42.5625 2.453125 -42.84375 L 11.484375 -50.484375 C 11.710938 -50.671875 12.023438 -50.820312 12.421875 -50.9375 C 12.816406 -51.050781 13.25 -51.109375 13.71875 -51.109375 L 24.5 -51.109375 C 25.625 -51.109375 26.441406 -50.851562 26.953125 -50.34375 C 27.460938 -49.832031 27.71875 -49.015625 27.71875 -47.890625 L 27.71875 -36.40625 C 27.71875 -35.988281 27.738281 -35.566406 27.78125 -35.140625 C 27.832031 -34.722656 27.976562 -34.28125 28.21875 -33.8125 L 29.0625 -32.625 L 29.0625 -40.265625 C 29.0625 -40.867188 29.140625 -41.378906 29.296875 -41.796875 C 29.460938 -42.210938 29.707031 -42.5625 30.03125 -42.84375 L 39.0625 -50.484375 C 39.300781 -50.671875 39.617188 -50.820312 40.015625 -50.9375 C 40.410156 -51.050781 40.84375 -51.109375 41.3125 -51.109375 L 51.734375 -51.109375 C 52.859375 -51.109375 53.675781 -50.851562 54.1875 -50.34375 C 54.707031 -49.832031 54.96875 -49.015625 54.96875 -47.890625 L 54.96875 -34.453125 C 54.96875 -32.160156 54.78125 -30.453125 54.40625 -29.328125 C 54.03125 -28.210938 53.28125 -26.910156 52.15625 -25.421875 L 41.65625 -11.203125 L 41.65625 -2.515625 C 41.65625 -1.910156 41.570312 -1.394531 41.40625 -0.96875 C 41.25 -0.550781 41.003906 -0.207031 40.671875 0.0625 L 31.578125 7.625 C 31.390625 7.8125 31.097656 7.972656 30.703125 8.109375 C 30.304688 8.253906 29.875 8.328125 29.40625 8.328125 Z M 38.4375 0 C 39.320312 0 39.960938 -0.195312 40.359375 -0.59375 C 40.753906 -0.988281 40.953125 -1.628906 40.953125 -2.515625 L 40.953125 -11.40625 L 51.59375 -25.828125 C 52.625 -27.273438 53.328125 -28.535156 53.703125 -29.609375 C 54.078125 -30.691406 54.265625 -32.304688 54.265625 -34.453125 L 54.265625 -47.890625 C 54.265625 -48.773438 54.066406 -49.414062 53.671875 -49.8125 C 53.273438 -50.207031 52.628906 -50.40625 51.734375 -50.40625 L 41.3125 -50.40625 C 40.425781 -50.40625 39.78125 -50.207031 39.375 -49.8125 C 38.976562 -49.414062 38.78125 -48.773438 38.78125 -47.890625 L 38.78125 -36.40625 C 38.78125 -35.9375 38.757812 -35.445312 38.71875 -34.9375 C 38.675781 -34.425781 38.488281 -33.9375 38.15625 -33.46875 L 34.9375 -28.421875 C 34.707031 -28.003906 34.460938 -27.703125 34.203125 -27.515625 C 33.941406 -27.328125 33.625 -27.234375 33.25 -27.234375 L 32.5625 -27.234375 C 32.1875 -27.234375 31.867188 -27.328125 31.609375 -27.515625 C 31.359375 -27.703125 31.113281 -28.003906 30.875 -28.421875 L 27.65625 -33.46875 C 27.332031 -33.9375 27.144531 -34.425781 27.09375 -34.9375 C 27.050781 -35.445312 27.03125 -35.9375 27.03125 -36.40625 L 27.03125 -47.890625 C 27.03125 -48.773438 26.828125 -49.414062 26.421875 -49.8125 C 26.023438 -50.207031 25.382812 -50.40625 24.5 -50.40625 L 13.71875 -50.40625 C 12.832031 -50.40625 12.191406 -50.207031 11.796875 -49.8125 C 11.398438 -49.414062 11.203125 -48.773438 11.203125 -47.890625 L 11.203125 -34.453125 C 11.203125 -32.304688 11.375 -30.691406 11.71875 -29.609375 C 12.070312 -28.535156 12.785156 -27.273438 13.859375 -25.828125 L 24.578125 -11.484375 L 24.578125 -2.515625 C 24.578125 -1.628906 24.773438 -0.988281 25.171875 -0.59375 C 25.566406 -0.195312 26.207031 0 27.09375 0 Z M 33.609375 -18.28125 L 33.125 -18.28125 L 33.125 -6.296875 L 32.421875 -6.296875 L 32.421875 -18.28125 L 31.71875 -18.28125 C 30.6875 -18.28125 29.757812 -18.507812 28.9375 -18.96875 C 28.125 -19.4375 27.347656 -20.1875 26.609375 -21.21875 L 19.8125 -30.671875 C 19.300781 -31.367188 19 -32.179688 18.90625 -33.109375 C 18.8125 -34.046875 18.765625 -35.03125 18.765625 -36.0625 L 18.765625 -44.109375 L 19.46875 -44.109375 L 19.46875 -36.0625 C 19.46875 -35.082031 19.515625 -34.160156 19.609375 -33.296875 C 19.703125 -32.429688 19.976562 -31.648438 20.4375 -30.953125 L 27.234375 -21.5 C 27.835938 -20.5625 28.535156 -19.90625 29.328125 -19.53125 C 30.128906 -19.15625 30.925781 -18.96875 31.71875 -18.96875 L 33.609375 -18.96875 C 34.492188 -18.96875 35.296875 -19.164062 36.015625 -19.5625 C 36.742188 -19.96875 37.457031 -20.613281 38.15625 -21.5 L 45.15625 -30.953125 C 45.625 -31.554688 45.90625 -32.3125 46 -33.21875 C 46.09375 -34.132812 46.140625 -35.082031 46.140625 -36.0625 L 46.140625 -44.109375 L 46.84375 -44.109375 L 46.84375 -36.0625 C 46.84375 -35.03125 46.804688 -34.054688 46.734375 -33.140625 C 46.660156 -32.234375 46.347656 -31.410156 45.796875 -30.671875 L 38.78125 -21.21875 C 38.039062 -20.1875 37.257812 -19.4375 36.4375 -18.96875 C 35.625 -18.507812 34.679688 -18.28125 33.609375 -18.28125 Z M 33.609375 -18.28125 "/></g></g></g><g fill="#db2624" fill-opacity="1"><g transform="translate(24.342776, 207.499995)"><g><path d="M 30.015625 5.953125 L 4.546875 5.953125 C 3.742188 5.953125 3.160156 5.765625 2.796875 5.390625 C 2.429688 5.023438 2.25 4.445312 2.25 3.65625 L 2.25 -28.765625 C 2.25 -29.191406 2.304688 -29.554688 2.421875 -29.859375 C 2.535156 -30.160156 2.710938 -30.410156 2.953125 -30.609375 L 9.40625 -36.0625 C 9.570312 -36.195312 9.796875 -36.304688 10.078125 -36.390625 C 10.359375 -36.472656 10.664062 -36.515625 11 -36.515625 L 18.75 -36.515625 C 19.550781 -36.515625 20.132812 -36.328125 20.5 -35.953125 C 20.875 -35.585938 21.0625 -35.003906 21.0625 -34.203125 L 21.0625 -13.859375 L 21.15625 -13.953125 L 27.609375 -19.40625 C 27.773438 -19.539062 28 -19.648438 28.28125 -19.734375 C 28.5625 -19.816406 28.867188 -19.859375 29.203125 -19.859375 L 36.46875 -19.859375 C 37.257812 -19.859375 37.835938 -19.671875 38.203125 -19.296875 C 38.578125 -18.929688 38.765625 -18.351562 38.765625 -17.5625 L 38.765625 -1.796875 C 38.765625 -1.367188 38.703125 -1.003906 38.578125 -0.703125 C 38.460938 -0.398438 38.289062 -0.148438 38.0625 0.046875 L 31.5625 5.453125 C 31.425781 5.585938 31.21875 5.703125 30.9375 5.796875 C 30.65625 5.898438 30.347656 5.953125 30.015625 5.953125 Z M 36.46875 0 C 37.09375 0 37.546875 -0.140625 37.828125 -0.421875 C 38.117188 -0.703125 38.265625 -1.160156 38.265625 -1.796875 L 38.265625 -17.5625 C 38.265625 -18.1875 38.117188 -18.640625 37.828125 -18.921875 C 37.546875 -19.210938 37.09375 -19.359375 36.46875 -19.359375 L 29.203125 -19.359375 C 28.578125 -19.359375 28.117188 -19.210938 27.828125 -18.921875 C 27.546875 -18.640625 27.40625 -18.1875 27.40625 -17.5625 L 27.40625 -9.453125 L 20.5625 -9.453125 L 20.5625 -34.203125 C 20.5625 -34.835938 20.414062 -35.296875 20.125 -35.578125 C 19.84375 -35.867188 19.382812 -36.015625 18.75 -36.015625 L 11 -36.015625 C 10.363281 -36.015625 9.90625 -35.867188 9.625 -35.578125 C 9.34375 -35.296875 9.203125 -34.835938 9.203125 -34.203125 L 9.203125 -1.796875 C 9.203125 -1.160156 9.34375 -0.703125 9.625 -0.421875 C 9.90625 -0.140625 10.363281 0 11 0 Z M 14.65625 -4.5 L 14.65625 -31.515625 L 15.15625 -31.515625 L 15.15625 -5 L 32.5625 -5 L 32.5625 -14.859375 L 33.0625 -14.859375 L 33.0625 -4.5 Z M 14.65625 -4.5 "/></g></g></g><g fill="#db2624" fill-opacity="1"><g transform="translate(64.105248, 207.499995)"><g><path d="M 14.25 -15.15625 L 14.25 -13.609375 L 33.765625 -13.609375 L 33.765625 -15.15625 C 33.765625 -16.050781 33.6875 -16.882812 33.53125 -17.65625 C 33.382812 -18.425781 33.191406 -19.144531 32.953125 -19.8125 L 29.515625 -27.953125 C 29.140625 -28.828125 28.753906 -29.554688 28.359375 -30.140625 C 27.960938 -30.722656 27.296875 -31.015625 26.359375 -31.015625 L 21.453125 -31.015625 C 20.453125 -31.015625 19.75 -30.722656 19.34375 -30.140625 C 18.945312 -29.554688 18.582031 -28.847656 18.25 -28.015625 L 15.0625 -19.8125 C 14.820312 -19.144531 14.625 -18.425781 14.46875 -17.65625 C 14.320312 -16.882812 14.25 -16.050781 14.25 -15.15625 Z M 22.25 -25.515625 C 22.382812 -25.804688 22.523438 -26.019531 22.671875 -26.15625 C 22.828125 -26.289062 23.003906 -26.359375 23.203125 -26.359375 L 24.453125 -26.359375 C 24.648438 -26.359375 24.820312 -26.289062 24.96875 -26.15625 C 25.125 -26.019531 25.269531 -25.804688 25.40625 -25.515625 L 27.765625 -17.90625 L 19.90625 -17.90625 Z M 33.765625 -4.5 L 33.765625 -13.109375 L 14.25 -13.109375 L 14.25 -4.5 L 13.75 -4.5 L 13.75 -15.15625 C 13.75 -16.09375 13.820312 -16.953125 13.96875 -17.734375 C 14.125 -18.515625 14.335938 -19.269531 14.609375 -20 L 17.8125 -28.203125 C 18.175781 -29.140625 18.585938 -29.925781 19.046875 -30.5625 C 19.515625 -31.195312 20.316406 -31.515625 21.453125 -31.515625 L 26.359375 -31.515625 C 27.460938 -31.515625 28.238281 -31.195312 28.6875 -30.5625 C 29.132812 -29.925781 29.554688 -29.125 29.953125 -28.15625 L 33.40625 -20 C 33.675781 -19.269531 33.882812 -18.515625 34.03125 -17.734375 C 34.1875 -16.953125 34.265625 -16.09375 34.265625 -15.15625 L 34.265625 -4.5 Z M 19.40625 -1.796875 L 19.40625 -8.796875 L 28.265625 -8.796875 L 28.265625 -1.796875 C 28.265625 -1.160156 28.421875 -0.703125 28.734375 -0.421875 C 29.046875 -0.140625 29.535156 0 30.203125 0 L 37.765625 0 C 38.398438 0 38.859375 -0.140625 39.140625 -0.421875 C 39.421875 -0.703125 39.5625 -1.160156 39.5625 -1.796875 L 39.5625 -15 C 39.5625 -16 39.398438 -17.148438 39.078125 -18.453125 C 38.765625 -19.753906 38.273438 -21.269531 37.609375 -23 L 33.265625 -34.359375 C 33.054688 -34.929688 32.742188 -35.347656 32.328125 -35.609375 C 31.910156 -35.878906 31.390625 -36.015625 30.765625 -36.015625 L 17.3125 -36.015625 C 16.644531 -36.015625 16.101562 -35.878906 15.6875 -35.609375 C 15.269531 -35.347656 14.957031 -34.929688 14.75 -34.359375 L 10.40625 -23 C 9.738281 -21.269531 9.242188 -19.753906 8.921875 -18.453125 C 8.609375 -17.148438 8.453125 -16 8.453125 -15 L 8.453125 -1.796875 C 8.453125 -1.160156 8.59375 -0.703125 8.875 -0.421875 C 9.15625 -0.140625 9.613281 0 10.25 0 L 17.609375 0 C 18.242188 0 18.703125 -0.140625 18.984375 -0.421875 C 19.265625 -0.703125 19.40625 -1.160156 19.40625 -1.796875 Z M 12.703125 5.453125 C 12.566406 5.585938 12.359375 5.703125 12.078125 5.796875 C 11.796875 5.898438 11.488281 5.953125 11.15625 5.953125 L 3.796875 5.953125 C 2.992188 5.953125 2.410156 5.765625 2.046875 5.390625 C 1.679688 5.023438 1.5 4.445312 1.5 3.65625 L 1.5 -9.546875 C 1.5 -10.585938 1.65625 -11.765625 1.96875 -13.078125 C 2.289062 -14.398438 2.800781 -15.957031 3.5 -17.75 L 7.796875 -29.0625 C 7.898438 -29.363281 8.023438 -29.617188 8.171875 -29.828125 C 8.328125 -30.046875 8.488281 -30.238281 8.65625 -30.40625 L 8.703125 -30.453125 L 15.109375 -35.8125 C 15.367188 -36.039062 15.679688 -36.210938 16.046875 -36.328125 C 16.421875 -36.453125 16.84375 -36.515625 17.3125 -36.515625 L 30.765625 -36.515625 C 31.523438 -36.515625 32.144531 -36.351562 32.625 -36.03125 C 33.113281 -35.71875 33.472656 -35.226562 33.703125 -34.5625 L 38.0625 -23.203125 C 38.757812 -21.398438 39.265625 -19.84375 39.578125 -18.53125 C 39.898438 -17.21875 40.0625 -16.039062 40.0625 -15 L 40.0625 -1.796875 C 40.0625 -1.367188 40.003906 -1.003906 39.890625 -0.703125 C 39.773438 -0.398438 39.597656 -0.148438 39.359375 0.046875 L 32.859375 5.453125 C 32.722656 5.585938 32.515625 5.703125 32.234375 5.796875 C 31.953125 5.898438 31.644531 5.953125 31.3125 5.953125 L 23.75 5.953125 C 22.914062 5.953125 22.300781 5.757812 21.90625 5.375 C 21.507812 4.988281 21.3125 4.414062 21.3125 3.65625 L 21.3125 -2.84375 L 19.90625 -2.84375 L 19.90625 -1.796875 C 19.90625 -1.367188 19.847656 -1.003906 19.734375 -0.703125 C 19.617188 -0.398438 19.441406 -0.148438 19.203125 0.046875 Z M 12.703125 5.453125 "/></g></g></g><g fill="#db2624" fill-opacity="1"><g transform="translate(105.618265, 207.499995)"><g><path d="M 15.8125 -31.109375 L 34.203125 -10.40625 L 34.203125 -31.515625 L 34.703125 -31.515625 L 34.703125 -4.5 L 34.203125 -4.5 L 34.203125 -9.65625 L 15.3125 -30.859375 C 15.269531 -30.890625 15.222656 -30.921875 15.171875 -30.953125 C 15.128906 -30.992188 15.09375 -31.015625 15.0625 -31.015625 C 15.019531 -31.015625 14.988281 -30.992188 14.96875 -30.953125 C 14.957031 -30.921875 14.953125 -30.890625 14.953125 -30.859375 L 14.953125 -4.5 L 14.453125 -4.5 L 14.453125 -30.953125 C 14.453125 -31.160156 14.519531 -31.3125 14.65625 -31.40625 C 14.789062 -31.507812 14.925781 -31.5625 15.0625 -31.5625 C 15.1875 -31.5625 15.300781 -31.523438 15.40625 -31.453125 C 15.507812 -31.390625 15.644531 -31.273438 15.8125 -31.109375 Z M 18.5 0 C 19.132812 0 19.59375 -0.140625 19.875 -0.421875 C 20.164062 -0.703125 20.3125 -1.160156 20.3125 -1.796875 L 20.3125 -18.3125 L 28.859375 -7.953125 L 28.859375 -1.796875 C 28.859375 -1.160156 29 -0.703125 29.28125 -0.421875 C 29.5625 -0.140625 30.019531 0 30.65625 0 L 38.15625 0 C 38.789062 0 39.25 -0.140625 39.53125 -0.421875 C 39.820312 -0.703125 39.96875 -1.160156 39.96875 -1.796875 L 39.96875 -34.203125 C 39.96875 -34.835938 39.820312 -35.296875 39.53125 -35.578125 C 39.25 -35.867188 38.789062 -36.015625 38.15625 -36.015625 L 30.65625 -36.015625 C 30.019531 -36.015625 29.5625 -35.867188 29.28125 -35.578125 C 29 -35.296875 28.859375 -34.835938 28.859375 -34.203125 L 28.859375 -23.5625 L 19.15625 -34.65625 C 18.71875 -35.15625 18.273438 -35.503906 17.828125 -35.703125 C 17.378906 -35.910156 16.835938 -36.015625 16.203125 -36.015625 L 11 -36.015625 C 10.363281 -36.015625 9.90625 -35.867188 9.625 -35.578125 C 9.34375 -35.296875 9.203125 -34.835938 9.203125 -34.203125 L 9.203125 -1.796875 C 9.203125 -1.160156 9.34375 -0.703125 9.625 -0.421875 C 9.90625 -0.140625 10.363281 0 11 0 Z M 20.109375 0.046875 L 13.609375 5.453125 C 13.472656 5.585938 13.257812 5.703125 12.96875 5.796875 C 12.6875 5.898438 12.378906 5.953125 12.046875 5.953125 L 4.546875 5.953125 C 3.742188 5.953125 3.160156 5.765625 2.796875 5.390625 C 2.429688 5.023438 2.25 4.445312 2.25 3.65625 L 2.25 -28.765625 C 2.25 -29.191406 2.304688 -29.554688 2.421875 -29.859375 C 2.535156 -30.160156 2.710938 -30.410156 2.953125 -30.609375 L 9.40625 -36.0625 C 9.570312 -36.195312 9.796875 -36.304688 10.078125 -36.390625 C 10.359375 -36.472656 10.664062 -36.515625 11 -36.515625 L 16.203125 -36.515625 C 16.941406 -36.515625 17.5625 -36.394531 18.0625 -36.15625 C 18.5625 -35.925781 19.0625 -35.546875 19.5625 -35.015625 L 23 -31.015625 L 29.0625 -36.0625 C 29.226562 -36.195312 29.453125 -36.304688 29.734375 -36.390625 C 30.015625 -36.472656 30.320312 -36.515625 30.65625 -36.515625 L 38.15625 -36.515625 C 38.957031 -36.515625 39.539062 -36.328125 39.90625 -35.953125 C 40.28125 -35.585938 40.46875 -35.003906 40.46875 -34.203125 L 40.46875 -1.796875 C 40.46875 -1.367188 40.40625 -1.003906 40.28125 -0.703125 C 40.164062 -0.398438 39.992188 -0.148438 39.765625 0.046875 L 33.265625 5.453125 C 33.128906 5.585938 32.914062 5.703125 32.625 5.796875 C 32.34375 5.898438 32.035156 5.953125 31.703125 5.953125 L 24.203125 5.953125 C 23.398438 5.953125 22.816406 5.765625 22.453125 5.390625 C 22.085938 5.023438 21.90625 4.445312 21.90625 3.65625 L 21.90625 -2.296875 L 20.8125 -3.65625 L 20.8125 -1.796875 C 20.8125 -1.367188 20.75 -1.003906 20.625 -0.703125 C 20.507812 -0.398438 20.335938 -0.148438 20.109375 0.046875 Z M 20.109375 0.046875 "/></g></g></g><g fill="#db2624" fill-opacity="1"><g transform="translate(148.281642, 207.499995)"><g><path d="M 30.265625 5.953125 L 14.5 5.953125 C 10.132812 5.953125 6.910156 4.816406 4.828125 2.546875 C 2.742188 0.285156 1.703125 -2.644531 1.703125 -6.25 L 1.703125 -20.359375 C 1.703125 -22.191406 1.96875 -23.773438 2.5 -25.109375 C 3.03125 -26.441406 3.8125 -27.554688 4.84375 -28.453125 L 11.296875 -33.90625 C 12.335938 -34.78125 13.664062 -35.429688 15.28125 -35.859375 C 16.894531 -36.296875 18.785156 -36.515625 20.953125 -36.515625 L 33.453125 -36.515625 C 34.253906 -36.515625 34.835938 -36.328125 35.203125 -35.953125 C 35.578125 -35.585938 35.765625 -35.003906 35.765625 -34.203125 L 35.765625 -28.15625 C 35.765625 -27.726562 35.703125 -27.363281 35.578125 -27.0625 C 35.460938 -26.757812 35.289062 -26.507812 35.0625 -26.3125 L 28.5625 -20.90625 C 28.425781 -20.769531 28.21875 -20.648438 27.9375 -20.546875 C 27.65625 -20.453125 27.347656 -20.40625 27.015625 -20.40625 L 20.5 -20.40625 L 20.5 -13.203125 C 20.539062 -13.265625 20.601562 -13.335938 20.6875 -13.421875 C 20.769531 -13.503906 20.84375 -13.582031 20.90625 -13.65625 L 27.359375 -19.109375 C 27.523438 -19.242188 27.75 -19.351562 28.03125 -19.4375 C 28.3125 -19.519531 28.617188 -19.5625 28.953125 -19.5625 L 36.71875 -19.5625 C 37.507812 -19.5625 38.085938 -19.375 38.453125 -19 C 38.828125 -18.632812 39.015625 -18.050781 39.015625 -17.25 L 39.015625 -1.796875 C 39.015625 -1.367188 38.953125 -1.003906 38.828125 -0.703125 C 38.710938 -0.398438 38.539062 -0.148438 38.3125 0.046875 L 31.8125 5.453125 C 31.675781 5.585938 31.46875 5.703125 31.1875 5.796875 C 30.90625 5.898438 30.597656 5.953125 30.265625 5.953125 Z M 36.71875 0 C 37.34375 0 37.796875 -0.140625 38.078125 -0.421875 C 38.367188 -0.703125 38.515625 -1.160156 38.515625 -1.796875 L 38.515625 -17.25 C 38.515625 -17.882812 38.367188 -18.34375 38.078125 -18.625 C 37.796875 -18.914062 37.34375 -19.0625 36.71875 -19.0625 L 28.953125 -19.0625 C 28.328125 -19.0625 27.867188 -18.914062 27.578125 -18.625 C 27.296875 -18.34375 27.15625 -17.882812 27.15625 -17.25 L 27.15625 -9.453125 L 22.3125 -9.453125 C 21.539062 -9.453125 20.960938 -9.648438 20.578125 -10.046875 C 20.191406 -10.453125 20 -11.070312 20 -11.90625 L 20 -23.859375 C 20 -24.691406 20.25 -25.316406 20.75 -25.734375 C 21.25 -26.148438 22.019531 -26.359375 23.0625 -26.359375 L 33.453125 -26.359375 C 34.085938 -26.359375 34.546875 -26.5 34.828125 -26.78125 C 35.117188 -27.0625 35.265625 -27.519531 35.265625 -28.15625 L 35.265625 -34.203125 C 35.265625 -34.835938 35.117188 -35.296875 34.828125 -35.578125 C 34.546875 -35.867188 34.085938 -36.015625 33.453125 -36.015625 L 20.953125 -36.015625 C 16.785156 -36.015625 13.691406 -35.179688 11.671875 -33.515625 C 9.660156 -31.847656 8.65625 -29.28125 8.65625 -25.8125 L 8.65625 -10.203125 C 8.65625 -6.734375 9.660156 -4.164062 11.671875 -2.5 C 13.691406 -0.832031 16.785156 0 20.953125 0 Z M 23.109375 -4.5 C 21.273438 -4.5 19.773438 -4.613281 18.609375 -4.84375 C 17.441406 -5.082031 16.523438 -5.457031 15.859375 -5.96875 C 15.191406 -6.488281 14.734375 -7.15625 14.484375 -7.96875 C 14.234375 -8.789062 14.109375 -9.785156 14.109375 -10.953125 L 14.109375 -24.953125 C 14.109375 -27.328125 14.640625 -29.015625 15.703125 -30.015625 C 16.773438 -31.015625 18.910156 -31.515625 22.109375 -31.515625 L 30.765625 -31.515625 L 30.765625 -31.015625 L 22.109375 -31.015625 C 19.171875 -31.015625 17.1875 -30.554688 16.15625 -29.640625 C 15.125 -28.722656 14.609375 -27.160156 14.609375 -24.953125 L 14.609375 -10.953125 C 14.609375 -8.785156 15.179688 -7.25 16.328125 -6.34375 C 17.484375 -5.445312 19.742188 -5 23.109375 -5 L 32.5625 -5 L 32.5625 -14.546875 L 33.0625 -14.546875 L 33.0625 -4.5 Z M 23.109375 -4.5 "/></g></g></g><g fill="#db2624" fill-opacity="1"><g transform="translate(188.69432, 207.499995)"><g><path d="M 17.953125 6.703125 C 14.722656 6.703125 12.066406 6.359375 9.984375 5.671875 C 7.898438 4.992188 6.269531 4.085938 5.09375 2.953125 C 3.925781 1.816406 3.117188 0.515625 2.671875 -0.953125 C 2.222656 -2.421875 2 -3.9375 2 -5.5 L 2 -28.765625 C 2 -29.191406 2.054688 -29.554688 2.171875 -29.859375 C 2.285156 -30.160156 2.460938 -30.410156 2.703125 -30.609375 L 9.15625 -36.0625 C 9.320312 -36.195312 9.546875 -36.304688 9.828125 -36.390625 C 10.109375 -36.472656 10.414062 -36.515625 10.75 -36.515625 L 18.609375 -36.515625 C 19.410156 -36.515625 19.992188 -36.328125 20.359375 -35.953125 C 20.722656 -35.585938 20.90625 -35.003906 20.90625 -34.203125 L 20.90625 -11.40625 C 20.90625 -11.101562 20.953125 -10.828125 21.046875 -10.578125 C 21.148438 -10.328125 21.367188 -10.132812 21.703125 -10 L 21.703125 -28.765625 C 21.703125 -29.191406 21.75 -29.554688 21.84375 -29.859375 C 21.945312 -30.160156 22.101562 -30.394531 22.3125 -30.5625 L 22.359375 -30.609375 L 28.859375 -36.0625 C 29.023438 -36.195312 29.238281 -36.304688 29.5 -36.390625 C 29.769531 -36.472656 30.085938 -36.515625 30.453125 -36.515625 L 38.0625 -36.515625 C 38.863281 -36.515625 39.445312 -36.328125 39.8125 -35.953125 C 40.175781 -35.585938 40.359375 -35.003906 40.359375 -34.203125 L 40.359375 -9.453125 C 40.359375 -7.921875 40.140625 -6.503906 39.703125 -5.203125 C 39.273438 -3.898438 38.492188 -2.78125 37.359375 -1.84375 L 30.859375 3.546875 C 29.691406 4.546875 28.070312 5.320312 26 5.875 C 23.9375 6.425781 21.253906 6.703125 17.953125 6.703125 Z M 39.859375 -9.453125 L 39.859375 -34.203125 C 39.859375 -34.835938 39.71875 -35.296875 39.4375 -35.578125 C 39.15625 -35.867188 38.695312 -36.015625 38.0625 -36.015625 L 30.453125 -36.015625 C 29.828125 -36.015625 29.367188 -35.867188 29.078125 -35.578125 C 28.796875 -35.296875 28.65625 -34.835938 28.65625 -34.203125 L 28.65625 -11.40625 C 28.65625 -10.738281 28.40625 -10.175781 27.90625 -9.71875 C 27.40625 -9.269531 26.269531 -9.046875 24.5 -9.046875 C 22.769531 -9.046875 21.65625 -9.269531 21.15625 -9.71875 C 20.65625 -10.175781 20.40625 -10.738281 20.40625 -11.40625 L 20.40625 -34.203125 C 20.40625 -34.835938 20.265625 -35.296875 19.984375 -35.578125 C 19.703125 -35.867188 19.242188 -36.015625 18.609375 -36.015625 L 10.75 -36.015625 C 10.113281 -36.015625 9.65625 -35.867188 9.375 -35.578125 C 9.09375 -35.296875 8.953125 -34.835938 8.953125 -34.203125 L 8.953125 -9.453125 C 8.953125 -7.921875 9.175781 -6.53125 9.625 -5.28125 C 10.070312 -4.03125 10.867188 -2.960938 12.015625 -2.078125 C 13.171875 -1.191406 14.75 -0.5 16.75 0 C 18.75 0.5 21.300781 0.75 24.40625 0.75 C 27.507812 0.75 30.0625 0.5 32.0625 0 C 34.0625 -0.5 35.632812 -1.191406 36.78125 -2.078125 C 37.9375 -2.960938 38.738281 -4.03125 39.1875 -5.28125 C 39.632812 -6.53125 39.859375 -7.921875 39.859375 -9.453125 Z M 14.453125 -31.515625 L 14.953125 -31.515625 L 14.953125 -10.65625 C 14.953125 -8.789062 15.609375 -7.28125 16.921875 -6.125 C 18.242188 -4.976562 20.753906 -4.40625 24.453125 -4.40625 C 28.160156 -4.40625 30.679688 -4.976562 32.015625 -6.125 C 33.347656 -7.28125 34.015625 -8.789062 34.015625 -10.65625 L 34.015625 -31.515625 L 34.515625 -31.515625 L 34.515625 -10.65625 C 34.515625 -8.65625 33.8125 -7.03125 32.40625 -5.78125 C 31.007812 -4.53125 28.359375 -3.90625 24.453125 -3.90625 C 20.554688 -3.90625 17.914062 -4.53125 16.53125 -5.78125 C 15.144531 -7.03125 14.453125 -8.65625 14.453125 -10.65625 Z M 14.453125 -31.515625 "/></g></g></g><g fill="#db2624" fill-opacity="1"><g transform="translate(231.007588, 207.499995)"><g><path d="M 14.25 -15.15625 L 14.25 -13.609375 L 33.765625 -13.609375 L 33.765625 -15.15625 C 33.765625 -16.050781 33.6875 -16.882812 33.53125 -17.65625 C 33.382812 -18.425781 33.191406 -19.144531 32.953125 -19.8125 L 29.515625 -27.953125 C 29.140625 -28.828125 28.753906 -29.554688 28.359375 -30.140625 C 27.960938 -30.722656 27.296875 -31.015625 26.359375 -31.015625 L 21.453125 -31.015625 C 20.453125 -31.015625 19.75 -30.722656 19.34375 -30.140625 C 18.945312 -29.554688 18.582031 -28.847656 18.25 -28.015625 L 15.0625 -19.8125 C 14.820312 -19.144531 14.625 -18.425781 14.46875 -17.65625 C 14.320312 -16.882812 14.25 -16.050781 14.25 -15.15625 Z M 22.25 -25.515625 C 22.382812 -25.804688 22.523438 -26.019531 22.671875 -26.15625 C 22.828125 -26.289062 23.003906 -26.359375 23.203125 -26.359375 L 24.453125 -26.359375 C 24.648438 -26.359375 24.820312 -26.289062 24.96875 -26.15625 C 25.125 -26.019531 25.269531 -25.804688 25.40625 -25.515625 L 27.765625 -17.90625 L 19.90625 -17.90625 Z M 33.765625 -4.5 L 33.765625 -13.109375 L 14.25 -13.109375 L 14.25 -4.5 L 13.75 -4.5 L 13.75 -15.15625 C 13.75 -16.09375 13.820312 -16.953125 13.96875 -17.734375 C 14.125 -18.515625 14.335938 -19.269531 14.609375 -20 L 17.8125 -28.203125 C 18.175781 -29.140625 18.585938 -29.925781 19.046875 -30.5625 C 19.515625 -31.195312 20.316406 -31.515625 21.453125 -31.515625 L 26.359375 -31.515625 C 27.460938 -31.515625 28.238281 -31.195312 28.6875 -30.5625 C 29.132812 -29.925781 29.554688 -29.125 29.953125 -28.15625 L 33.40625 -20 C 33.675781 -19.269531 33.882812 -18.515625 34.03125 -17.734375 C 34.1875 -16.953125 34.265625 -16.09375 34.265625 -15.15625 L 34.265625 -4.5 Z M 19.40625 -1.796875 L 19.40625 -8.796875 L 28.265625 -8.796875 L 28.265625 -1.796875 C 28.265625 -1.160156 28.421875 -0.703125 28.734375 -0.421875 C 29.046875 -0.140625 29.535156 0 30.203125 0 L 37.765625 0 C 38.398438 0 38.859375 -0.140625 39.140625 -0.421875 C 39.421875 -0.703125 39.5625 -1.160156 39.5625 -1.796875 L 39.5625 -15 C 39.5625 -16 39.398438 -17.148438 39.078125 -18.453125 C 38.765625 -19.753906 38.273438 -21.269531 37.609375 -23 L 33.265625 -34.359375 C 33.054688 -34.929688 32.742188 -35.347656 32.328125 -35.609375 C 31.910156 -35.878906 31.390625 -36.015625 30.765625 -36.015625 L 17.3125 -36.015625 C 16.644531 -36.015625 16.101562 -35.878906 15.6875 -35.609375 C 15.269531 -35.347656 14.957031 -34.929688 14.75 -34.359375 L 10.40625 -23 C 9.738281 -21.269531 9.242188 -19.753906 8.921875 -18.453125 C 8.609375 -17.148438 8.453125 -16 8.453125 -15 L 8.453125 -1.796875 C 8.453125 -1.160156 8.59375 -0.703125 8.875 -0.421875 C 9.15625 -0.140625 9.613281 0 10.25 0 L 17.609375 0 C 18.242188 0 18.703125 -0.140625 18.984375 -0.421875 C 19.265625 -0.703125 19.40625 -1.160156 19.40625 -1.796875 Z M 12.703125 5.453125 C 12.566406 5.585938 12.359375 5.703125 12.078125 5.796875 C 11.796875 5.898438 11.488281 5.953125 11.15625 5.953125 L 3.796875 5.953125 C 2.992188 5.953125 2.410156 5.765625 2.046875 5.390625 C 1.679688 5.023438 1.5 4.445312 1.5 3.65625 L 1.5 -9.546875 C 1.5 -10.585938 1.65625 -11.765625 1.96875 -13.078125 C 2.289062 -14.398438 2.800781 -15.957031 3.5 -17.75 L 7.796875 -29.0625 C 7.898438 -29.363281 8.023438 -29.617188 8.171875 -29.828125 C 8.328125 -30.046875 8.488281 -30.238281 8.65625 -30.40625 L 8.703125 -30.453125 L 15.109375 -35.8125 C 15.367188 -36.039062 15.679688 -36.210938 16.046875 -36.328125 C 16.421875 -36.453125 16.84375 -36.515625 17.3125 -36.515625 L 30.765625 -36.515625 C 31.523438 -36.515625 32.144531 -36.351562 32.625 -36.03125 C 33.113281 -35.71875 33.472656 -35.226562 33.703125 -34.5625 L 38.0625 -23.203125 C 38.757812 -21.398438 39.265625 -19.84375 39.578125 -18.53125 C 39.898438 -17.21875 40.0625 -16.039062 40.0625 -15 L 40.0625 -1.796875 C 40.0625 -1.367188 40.003906 -1.003906 39.890625 -0.703125 C 39.773438 -0.398438 39.597656 -0.148438 39.359375 0.046875 L 32.859375 5.453125 C 32.722656 5.585938 32.515625 5.703125 32.234375 5.796875 C 31.953125 5.898438 31.644531 5.953125 31.3125 5.953125 L 23.75 5.953125 C 22.914062 5.953125 22.300781 5.757812 21.90625 5.375 C 21.507812 4.988281 21.3125 4.414062 21.3125 3.65625 L 21.3125 -2.84375 L 19.90625 -2.84375 L 19.90625 -1.796875 C 19.90625 -1.367188 19.847656 -1.003906 19.734375 -0.703125 C 19.617188 -0.398438 19.441406 -0.148438 19.203125 0.046875 Z M 12.703125 5.453125 "/></g></g></g><g fill="#db2624" fill-opacity="1"><g transform="translate(272.520616, 207.499995)"><g><path d="M 30.265625 5.953125 L 14.5 5.953125 C 10.132812 5.953125 6.910156 4.816406 4.828125 2.546875 C 2.742188 0.285156 1.703125 -2.644531 1.703125 -6.25 L 1.703125 -20.359375 C 1.703125 -22.191406 1.96875 -23.773438 2.5 -25.109375 C 3.03125 -26.441406 3.8125 -27.554688 4.84375 -28.453125 L 11.296875 -33.90625 C 12.335938 -34.78125 13.664062 -35.429688 15.28125 -35.859375 C 16.894531 -36.296875 18.785156 -36.515625 20.953125 -36.515625 L 33.453125 -36.515625 C 34.253906 -36.515625 34.835938 -36.328125 35.203125 -35.953125 C 35.578125 -35.585938 35.765625 -35.003906 35.765625 -34.203125 L 35.765625 -28.15625 C 35.765625 -27.726562 35.703125 -27.363281 35.578125 -27.0625 C 35.460938 -26.757812 35.289062 -26.507812 35.0625 -26.3125 L 28.5625 -20.90625 C 28.425781 -20.769531 28.21875 -20.648438 27.9375 -20.546875 C 27.65625 -20.453125 27.347656 -20.40625 27.015625 -20.40625 L 20.5 -20.40625 L 20.5 -13.203125 C 20.539062 -13.265625 20.601562 -13.335938 20.6875 -13.421875 C 20.769531 -13.503906 20.84375 -13.582031 20.90625 -13.65625 L 27.359375 -19.109375 C 27.523438 -19.242188 27.75 -19.351562 28.03125 -19.4375 C 28.3125 -19.519531 28.617188 -19.5625 28.953125 -19.5625 L 36.71875 -19.5625 C 37.507812 -19.5625 38.085938 -19.375 38.453125 -19 C 38.828125 -18.632812 39.015625 -18.050781 39.015625 -17.25 L 39.015625 -1.796875 C 39.015625 -1.367188 38.953125 -1.003906 38.828125 -0.703125 C 38.710938 -0.398438 38.539062 -0.148438 38.3125 0.046875 L 31.8125 5.453125 C 31.675781 5.585938 31.46875 5.703125 31.1875 5.796875 C 30.90625 5.898438 30.597656 5.953125 30.265625 5.953125 Z M 36.71875 0 C 37.34375 0 37.796875 -0.140625 38.078125 -0.421875 C 38.367188 -0.703125 38.515625 -1.160156 38.515625 -1.796875 L 38.515625 -17.25 C 38.515625 -17.882812 38.367188 -18.34375 38.078125 -18.625 C 37.796875 -18.914062 37.34375 -19.0625 36.71875 -19.0625 L 28.953125 -19.0625 C 28.328125 -19.0625 27.867188 -18.914062 27.578125 -18.625 C 27.296875 -18.34375 27.15625 -17.882812 27.15625 -17.25 L 27.15625 -9.453125 L 22.3125 -9.453125 C 21.539062 -9.453125 20.960938 -9.648438 20.578125 -10.046875 C 20.191406 -10.453125 20 -11.070312 20 -11.90625 L 20 -23.859375 C 20 -24.691406 20.25 -25.316406 20.75 -25.734375 C 21.25 -26.148438 22.019531 -26.359375 23.0625 -26.359375 L 33.453125 -26.359375 C 34.085938 -26.359375 34.546875 -26.5 34.828125 -26.78125 C 35.117188 -27.0625 35.265625 -27.519531 35.265625 -28.15625 L 35.265625 -34.203125 C 35.265625 -34.835938 35.117188 -35.296875 34.828125 -35.578125 C 34.546875 -35.867188 34.085938 -36.015625 33.453125 -36.015625 L 20.953125 -36.015625 C 16.785156 -36.015625 13.691406 -35.179688 11.671875 -33.515625 C 9.660156 -31.847656 8.65625 -29.28125 8.65625 -25.8125 L 8.65625 -10.203125 C 8.65625 -6.734375 9.660156 -4.164062 11.671875 -2.5 C 13.691406 -0.832031 16.785156 0 20.953125 0 Z M 23.109375 -4.5 C 21.273438 -4.5 19.773438 -4.613281 18.609375 -4.84375 C 17.441406 -5.082031 16.523438 -5.457031 15.859375 -5.96875 C 15.191406 -6.488281 14.734375 -7.15625 14.484375 -7.96875 C 14.234375 -8.789062 14.109375 -9.785156 14.109375 -10.953125 L 14.109375 -24.953125 C 14.109375 -27.328125 14.640625 -29.015625 15.703125 -30.015625 C 16.773438 -31.015625 18.910156 -31.515625 22.109375 -31.515625 L 30.765625 -31.515625 L 30.765625 -31.015625 L 22.109375 -31.015625 C 19.171875 -31.015625 17.1875 -30.554688 16.15625 -29.640625 C 15.125 -28.722656 14.609375 -27.160156 14.609375 -24.953125 L 14.609375 -10.953125 C 14.609375 -8.785156 15.179688 -7.25 16.328125 -6.34375 C 17.484375 -5.445312 19.742188 -5 23.109375 -5 L 32.5625 -5 L 32.5625 -14.546875 L 33.0625 -14.546875 L 33.0625 -4.5 Z M 23.109375 -4.5 "/></g></g></g><g fill="#db2624" fill-opacity="1"><g transform="translate(312.933295, 207.499995)"><g><path d="M 27.765625 5.953125 L 4.546875 5.953125 C 3.742188 5.953125 3.160156 5.765625 2.796875 5.390625 C 2.429688 5.023438 2.25 4.445312 2.25 3.65625 L 2.25 -28.765625 C 2.25 -29.191406 2.304688 -29.554688 2.421875 -29.859375 C 2.535156 -30.160156 2.710938 -30.410156 2.953125 -30.609375 L 9.40625 -36.0625 C 9.570312 -36.195312 9.796875 -36.304688 10.078125 -36.390625 C 10.359375 -36.472656 10.664062 -36.515625 11 -36.515625 L 34.203125 -36.515625 C 35.003906 -36.515625 35.585938 -36.328125 35.953125 -35.953125 C 36.328125 -35.585938 36.515625 -35.003906 36.515625 -34.203125 L 36.515625 -28.359375 C 36.515625 -27.921875 36.453125 -27.550781 36.328125 -27.25 C 36.210938 -26.957031 36.039062 -26.710938 35.8125 -26.515625 L 31.515625 -22.953125 C 31.847656 -22.785156 32.085938 -22.535156 32.234375 -22.203125 C 32.378906 -21.867188 32.453125 -21.4375 32.453125 -20.90625 L 32.453125 -15.5625 C 32.453125 -15.125 32.394531 -14.753906 32.28125 -14.453125 C 32.164062 -14.148438 31.992188 -13.898438 31.765625 -13.703125 L 27.3125 -9.953125 L 34.203125 -9.953125 C 35.003906 -9.953125 35.585938 -9.769531 35.953125 -9.40625 C 36.328125 -9.039062 36.515625 -8.457031 36.515625 -7.65625 L 36.515625 -1.796875 C 36.515625 -1.367188 36.453125 -1.003906 36.328125 -0.703125 C 36.210938 -0.398438 36.039062 -0.148438 35.8125 0.046875 L 29.3125 5.453125 C 29.175781 5.585938 28.96875 5.703125 28.6875 5.796875 C 28.40625 5.898438 28.097656 5.953125 27.765625 5.953125 Z M 34.203125 0 C 34.835938 0 35.296875 -0.140625 35.578125 -0.421875 C 35.867188 -0.703125 36.015625 -1.160156 36.015625 -1.796875 L 36.015625 -7.65625 C 36.015625 -8.289062 35.867188 -8.75 35.578125 -9.03125 C 35.296875 -9.3125 34.835938 -9.453125 34.203125 -9.453125 L 20.40625 -9.453125 L 20.40625 -13.75 L 30.15625 -13.75 C 30.789062 -13.75 31.25 -13.890625 31.53125 -14.171875 C 31.8125 -14.460938 31.953125 -14.925781 31.953125 -15.5625 L 31.953125 -20.90625 C 31.953125 -21.539062 31.8125 -22 31.53125 -22.28125 C 31.25 -22.5625 30.789062 -22.703125 30.15625 -22.703125 L 20.40625 -22.703125 L 20.40625 -26.5625 L 34.203125 -26.5625 C 34.835938 -26.5625 35.296875 -26.703125 35.578125 -26.984375 C 35.867188 -27.265625 36.015625 -27.722656 36.015625 -28.359375 L 36.015625 -34.203125 C 36.015625 -34.835938 35.867188 -35.296875 35.578125 -35.578125 C 35.296875 -35.867188 34.835938 -36.015625 34.203125 -36.015625 L 11 -36.015625 C 10.363281 -36.015625 9.90625 -35.867188 9.625 -35.578125 C 9.34375 -35.296875 9.203125 -34.835938 9.203125 -34.203125 L 9.203125 -1.796875 C 9.203125 -1.160156 9.34375 -0.703125 9.625 -0.421875 C 9.90625 -0.140625 10.363281 0 11 0 Z M 31.515625 -5 L 31.515625 -4.5 L 14.65625 -4.5 L 14.65625 -31.515625 L 31.515625 -31.515625 L 31.515625 -31.015625 L 15.15625 -31.015625 L 15.15625 -18.453125 L 27.453125 -18.453125 L 27.453125 -17.953125 L 15.15625 -17.953125 L 15.15625 -5 Z M 31.515625 -5 "/></g></g></g><g fill="#db2624" fill-opacity="1"><g transform="translate(24.342776, 293.74999)"><g/></g></g><g fill="#db2624" fill-opacity="1"><g transform="translate(45.472872, 293.74999)"><g/></g></g><g fill="#db2624" fill-opacity="1"><g transform="translate(66.602967, 293.74999)"><g/></g></g><g fill="#db2624" fill-opacity="1"><g transform="translate(87.74121, 293.74999)"><g><path d="M 25.6875 7.734375 L 15.15625 7.734375 C 14.113281 7.734375 13.351562 7.492188 12.875 7.015625 C 12.394531 6.546875 12.15625 5.789062 12.15625 4.75 L 12.15625 -26.53125 L 3.25 -26.53125 C 2.207031 -26.53125 1.445312 -26.765625 0.96875 -27.234375 C 0.5 -27.710938 0.265625 -28.472656 0.265625 -29.515625 L 0.265625 -37.390625 C 0.265625 -37.953125 0.335938 -38.425781 0.484375 -38.8125 C 0.640625 -39.207031 0.867188 -39.535156 1.171875 -39.796875 L 9.5625 -46.875 C 9.769531 -47.050781 10.054688 -47.191406 10.421875 -47.296875 C 10.796875 -47.410156 11.203125 -47.46875 11.640625 -47.46875 L 45.96875 -47.46875 C 47.007812 -47.46875 47.765625 -47.226562 48.234375 -46.75 C 48.710938 -46.269531 48.953125 -45.507812 48.953125 -44.46875 L 48.953125 -36.609375 C 48.953125 -36.046875 48.875 -35.566406 48.71875 -35.171875 C 48.570312 -34.785156 48.347656 -34.460938 48.046875 -34.203125 L 39.59375 -27.171875 C 39.414062 -27.003906 39.144531 -26.851562 38.78125 -26.71875 C 38.414062 -26.59375 38.015625 -26.53125 37.578125 -26.53125 L 37.0625 -26.53125 L 37.0625 -2.34375 C 37.0625 -1.78125 36.984375 -1.300781 36.828125 -0.90625 C 36.679688 -0.519531 36.457031 -0.195312 36.15625 0.0625 L 27.703125 7.09375 C 27.523438 7.257812 27.25 7.40625 26.875 7.53125 C 26.507812 7.664062 26.113281 7.734375 25.6875 7.734375 Z M 34.0625 0 C 34.882812 0 35.476562 -0.179688 35.84375 -0.546875 C 36.21875 -0.921875 36.40625 -1.519531 36.40625 -2.34375 L 36.40625 -34.265625 L 45.96875 -34.265625 C 46.789062 -34.265625 47.382812 -34.445312 47.75 -34.8125 C 48.125 -35.1875 48.3125 -35.785156 48.3125 -36.609375 L 48.3125 -44.46875 C 48.3125 -45.289062 48.125 -45.882812 47.75 -46.25 C 47.382812 -46.625 46.789062 -46.8125 45.96875 -46.8125 L 11.640625 -46.8125 C 10.816406 -46.8125 10.21875 -46.625 9.84375 -46.25 C 9.476562 -45.882812 9.296875 -45.289062 9.296875 -44.46875 L 9.296875 -36.609375 C 9.296875 -35.785156 9.476562 -35.1875 9.84375 -34.8125 C 10.21875 -34.445312 10.816406 -34.265625 11.640625 -34.265625 L 21.1875 -34.265625 L 21.1875 -2.34375 C 21.1875 -1.519531 21.367188 -0.921875 21.734375 -0.546875 C 22.109375 -0.179688 22.707031 0 23.53125 0 Z M 28.484375 -5.84375 L 28.484375 -40.3125 L 15.15625 -40.3125 L 15.15625 -40.953125 L 42.453125 -40.953125 L 42.453125 -40.3125 L 29.125 -40.3125 L 29.125 -5.84375 Z M 28.484375 -5.84375 "/></g></g></g><g fill="#db2624" fill-opacity="1"><g transform="translate(136.893054, 293.74999)"><g><path d="M 23.34375 8.71875 C 19.132812 8.71875 15.675781 8.269531 12.96875 7.375 C 10.257812 6.488281 8.144531 5.304688 6.625 3.828125 C 5.113281 2.359375 4.0625 0.671875 3.46875 -1.234375 C 2.882812 -3.140625 2.59375 -5.113281 2.59375 -7.15625 L 2.59375 -37.390625 C 2.59375 -37.953125 2.671875 -38.425781 2.828125 -38.8125 C 2.984375 -39.207031 3.210938 -39.535156 3.515625 -39.796875 L 11.890625 -46.875 C 12.109375 -47.050781 12.398438 -47.191406 12.765625 -47.296875 C 13.140625 -47.410156 13.546875 -47.46875 13.984375 -47.46875 L 24.1875 -47.46875 C 25.226562 -47.46875 25.984375 -47.226562 26.453125 -46.75 C 26.929688 -46.269531 27.171875 -45.507812 27.171875 -44.46875 L 27.171875 -14.828125 C 27.171875 -14.429688 27.234375 -14.070312 27.359375 -13.75 C 27.492188 -13.425781 27.78125 -13.175781 28.21875 -13 L 28.21875 -37.390625 C 28.21875 -37.953125 28.28125 -38.425781 28.40625 -38.8125 C 28.539062 -39.207031 28.738281 -39.507812 29 -39.71875 L 29.0625 -39.796875 L 37.515625 -46.875 C 37.734375 -47.050781 38.015625 -47.191406 38.359375 -47.296875 C 38.703125 -47.410156 39.113281 -47.46875 39.59375 -47.46875 L 49.484375 -47.46875 C 50.515625 -47.46875 51.269531 -47.226562 51.75 -46.75 C 52.226562 -46.269531 52.46875 -45.507812 52.46875 -44.46875 L 52.46875 -12.28125 C 52.46875 -10.289062 52.1875 -8.445312 51.625 -6.75 C 51.0625 -5.0625 50.039062 -3.613281 48.5625 -2.40625 L 40.109375 4.609375 C 38.597656 5.910156 36.5 6.921875 33.8125 7.640625 C 31.125 8.359375 27.632812 8.71875 23.34375 8.71875 Z M 51.8125 -12.28125 L 51.8125 -44.46875 C 51.8125 -45.289062 51.628906 -45.882812 51.265625 -46.25 C 50.898438 -46.625 50.304688 -46.8125 49.484375 -46.8125 L 39.59375 -46.8125 C 38.769531 -46.8125 38.171875 -46.625 37.796875 -46.25 C 37.429688 -45.882812 37.25 -45.289062 37.25 -44.46875 L 37.25 -14.828125 C 37.25 -13.953125 36.921875 -13.222656 36.265625 -12.640625 C 35.617188 -12.054688 34.148438 -11.765625 31.859375 -11.765625 C 29.609375 -11.765625 28.15625 -12.054688 27.5 -12.640625 C 26.851562 -13.222656 26.53125 -13.953125 26.53125 -14.828125 L 26.53125 -44.46875 C 26.53125 -45.289062 26.34375 -45.882812 25.96875 -46.25 C 25.601562 -46.625 25.007812 -46.8125 24.1875 -46.8125 L 13.984375 -46.8125 C 13.160156 -46.8125 12.5625 -46.625 12.1875 -46.25 C 11.820312 -45.882812 11.640625 -45.289062 11.640625 -44.46875 L 11.640625 -12.28125 C 11.640625 -10.289062 11.929688 -8.484375 12.515625 -6.859375 C 13.097656 -5.234375 14.132812 -3.84375 15.625 -2.6875 C 17.125 -1.539062 19.175781 -0.644531 21.78125 0 C 24.382812 0.644531 27.703125 0.96875 31.734375 0.96875 C 35.765625 0.96875 39.078125 0.644531 41.671875 0 C 44.273438 -0.644531 46.320312 -1.539062 47.8125 -2.6875 C 49.3125 -3.84375 50.351562 -5.234375 50.9375 -6.859375 C 51.519531 -8.484375 51.8125 -10.289062 51.8125 -12.28125 Z M 18.796875 -40.953125 L 19.4375 -40.953125 L 19.4375 -13.84375 C 19.4375 -11.414062 20.289062 -9.453125 22 -7.953125 C 23.71875 -6.460938 26.984375 -5.71875 31.796875 -5.71875 C 36.609375 -5.71875 39.878906 -6.460938 41.609375 -7.953125 C 43.335938 -9.453125 44.203125 -11.414062 44.203125 -13.84375 L 44.203125 -40.953125 L 44.859375 -40.953125 L 44.859375 -13.84375 C 44.859375 -11.25 43.945312 -9.140625 42.125 -7.515625 C 40.3125 -5.890625 36.867188 -5.078125 31.796875 -5.078125 C 26.722656 -5.078125 23.285156 -5.890625 21.484375 -7.515625 C 19.691406 -9.140625 18.796875 -11.25 18.796875 -13.84375 Z M 18.796875 -40.953125 "/></g></g></g><g fill="#db2624" fill-opacity="1"><g transform="translate(191.896308, 293.74999)"><g><path d="M 25.6875 7.734375 L 15.15625 7.734375 C 14.113281 7.734375 13.351562 7.492188 12.875 7.015625 C 12.394531 6.546875 12.15625 5.789062 12.15625 4.75 L 12.15625 -26.53125 L 3.25 -26.53125 C 2.207031 -26.53125 1.445312 -26.765625 0.96875 -27.234375 C 0.5 -27.710938 0.265625 -28.472656 0.265625 -29.515625 L 0.265625 -37.390625 C 0.265625 -37.953125 0.335938 -38.425781 0.484375 -38.8125 C 0.640625 -39.207031 0.867188 -39.535156 1.171875 -39.796875 L 9.5625 -46.875 C 9.769531 -47.050781 10.054688 -47.191406 10.421875 -47.296875 C 10.796875 -47.410156 11.203125 -47.46875 11.640625 -47.46875 L 45.96875 -47.46875 C 47.007812 -47.46875 47.765625 -47.226562 48.234375 -46.75 C 48.710938 -46.269531 48.953125 -45.507812 48.953125 -44.46875 L 48.953125 -36.609375 C 48.953125 -36.046875 48.875 -35.566406 48.71875 -35.171875 C 48.570312 -34.785156 48.347656 -34.460938 48.046875 -34.203125 L 39.59375 -27.171875 C 39.414062 -27.003906 39.144531 -26.851562 38.78125 -26.71875 C 38.414062 -26.59375 38.015625 -26.53125 37.578125 -26.53125 L 37.0625 -26.53125 L 37.0625 -2.34375 C 37.0625 -1.78125 36.984375 -1.300781 36.828125 -0.90625 C 36.679688 -0.519531 36.457031 -0.195312 36.15625 0.0625 L 27.703125 7.09375 C 27.523438 7.257812 27.25 7.40625 26.875 7.53125 C 26.507812 7.664062 26.113281 7.734375 25.6875 7.734375 Z M 34.0625 0 C 34.882812 0 35.476562 -0.179688 35.84375 -0.546875 C 36.21875 -0.921875 36.40625 -1.519531 36.40625 -2.34375 L 36.40625 -34.265625 L 45.96875 -34.265625 C 46.789062 -34.265625 47.382812 -34.445312 47.75 -34.8125 C 48.125 -35.1875 48.3125 -35.785156 48.3125 -36.609375 L 48.3125 -44.46875 C 48.3125 -45.289062 48.125 -45.882812 47.75 -46.25 C 47.382812 -46.625 46.789062 -46.8125 45.96875 -46.8125 L 11.640625 -46.8125 C 10.816406 -46.8125 10.21875 -46.625 9.84375 -46.25 C 9.476562 -45.882812 9.296875 -45.289062 9.296875 -44.46875 L 9.296875 -36.609375 C 9.296875 -35.785156 9.476562 -35.1875 9.84375 -34.8125 C 10.21875 -34.445312 10.816406 -34.265625 11.640625 -34.265625 L 21.1875 -34.265625 L 21.1875 -2.34375 C 21.1875 -1.519531 21.367188 -0.921875 21.734375 -0.546875 C 22.109375 -0.179688 22.707031 0 23.53125 0 Z M 28.484375 -5.84375 L 28.484375 -40.3125 L 15.15625 -40.3125 L 15.15625 -40.953125 L 42.453125 -40.953125 L 42.453125 -40.3125 L 29.125 -40.3125 L 29.125 -5.84375 Z M 28.484375 -5.84375 "/></g></g></g><g fill="#db2624" fill-opacity="1"><g transform="translate(241.048153, 293.74999)"><g><path d="M 39.984375 4.609375 C 38.460938 5.910156 36.335938 6.921875 33.609375 7.640625 C 30.878906 8.359375 27.367188 8.71875 23.078125 8.71875 C 18.828125 8.71875 15.347656 8.269531 12.640625 7.375 C 9.929688 6.488281 7.804688 5.304688 6.265625 3.828125 C 4.734375 2.359375 3.671875 0.671875 3.078125 -1.234375 C 2.492188 -3.140625 2.203125 -5.113281 2.203125 -7.15625 L 2.203125 -27.375 C 2.203125 -29.363281 2.484375 -31.210938 3.046875 -32.921875 C 3.617188 -34.640625 4.640625 -36.101562 6.109375 -37.3125 L 14.5625 -44.34375 C 16.082031 -45.644531 18.195312 -46.648438 20.90625 -47.359375 C 23.613281 -48.078125 27.132812 -48.4375 31.46875 -48.4375 C 35.71875 -48.4375 39.195312 -48.085938 41.90625 -47.390625 C 44.613281 -46.703125 46.734375 -45.738281 48.265625 -44.5 C 49.804688 -43.269531 50.859375 -41.796875 51.421875 -40.078125 C 51.984375 -38.367188 52.265625 -36.492188 52.265625 -34.453125 L 52.265625 -12.28125 C 52.265625 -10.289062 51.984375 -8.445312 51.421875 -6.75 C 50.859375 -5.0625 49.84375 -3.613281 48.375 -2.40625 Z M 51.625 -12.28125 L 51.625 -34.453125 C 51.625 -36.453125 51.328125 -38.265625 50.734375 -39.890625 C 50.148438 -41.515625 49.109375 -42.910156 47.609375 -44.078125 C 46.117188 -45.253906 44.0625 -46.164062 41.4375 -46.8125 C 38.820312 -47.457031 35.5 -47.78125 31.46875 -47.78125 C 27.4375 -47.78125 24.097656 -47.457031 21.453125 -46.8125 C 18.804688 -46.164062 16.734375 -45.253906 15.234375 -44.078125 C 13.742188 -42.910156 12.707031 -41.515625 12.125 -39.890625 C 11.539062 -38.265625 11.25 -36.453125 11.25 -34.453125 L 11.25 -12.28125 C 11.25 -10.289062 11.539062 -8.484375 12.125 -6.859375 C 12.707031 -5.234375 13.742188 -3.84375 15.234375 -2.6875 C 16.734375 -1.539062 18.804688 -0.644531 21.453125 0 C 24.097656 0.644531 27.4375 0.96875 31.46875 0.96875 C 35.5 0.96875 38.820312 0.644531 41.4375 0 C 44.0625 -0.644531 46.117188 -1.539062 47.609375 -2.6875 C 49.109375 -3.84375 50.148438 -5.234375 50.734375 -6.859375 C 51.328125 -8.484375 51.625 -10.289062 51.625 -12.28125 Z M 44.53125 -13.78125 C 44.53125 -11.175781 43.597656 -9.0625 41.734375 -7.4375 C 39.867188 -5.8125 36.40625 -5 31.34375 -5 C 26.269531 -5 22.820312 -5.8125 21 -7.4375 C 19.175781 -9.0625 18.265625 -11.175781 18.265625 -13.78125 L 18.265625 -32.96875 C 18.265625 -35.5625 19.175781 -37.671875 21 -39.296875 C 22.820312 -40.921875 26.269531 -41.734375 31.34375 -41.734375 C 36.40625 -41.734375 39.867188 -40.921875 41.734375 -39.296875 C 43.597656 -37.671875 44.53125 -35.5625 44.53125 -32.96875 Z M 18.921875 -13.78125 C 18.921875 -11.351562 19.785156 -9.390625 21.515625 -7.890625 C 23.253906 -6.398438 26.53125 -5.65625 31.34375 -5.65625 C 36.144531 -5.65625 39.4375 -6.398438 41.21875 -7.890625 C 43 -9.390625 43.890625 -11.351562 43.890625 -13.78125 L 43.890625 -32.96875 C 43.890625 -35.394531 43 -37.351562 41.21875 -38.84375 C 39.4375 -40.34375 36.144531 -41.09375 31.34375 -41.09375 C 26.53125 -41.09375 23.253906 -40.34375 21.515625 -38.84375 C 19.785156 -37.351562 18.921875 -35.394531 18.921875 -32.96875 Z M 26 -14.625 L 26 -32.125 C 26 -32.945312 26.320312 -33.648438 26.96875 -34.234375 C 27.625 -34.816406 29.125 -35.109375 31.46875 -35.109375 C 33.8125 -35.109375 35.304688 -34.816406 35.953125 -34.234375 C 36.597656 -33.648438 36.921875 -32.945312 36.921875 -32.125 L 36.921875 -14.625 C 36.921875 -13.757812 36.597656 -13.035156 35.953125 -12.453125 C 35.304688 -11.867188 33.8125 -11.578125 31.46875 -11.578125 C 29.125 -11.578125 27.625 -11.867188 26.96875 -12.453125 C 26.320312 -13.035156 26 -13.757812 26 -14.625 Z M 26.65625 -14.625 C 26.65625 -14.195312 26.738281 -13.816406 26.90625 -13.484375 C 27.082031 -13.160156 27.410156 -12.890625 27.890625 -12.671875 L 27.890625 -25.03125 C 27.890625 -25.46875 27.800781 -25.847656 27.625 -26.171875 C 27.457031 -26.492188 27.132812 -26.742188 26.65625 -26.921875 Z M 26.65625 -14.625 "/></g></g></g><g fill="#db2624" fill-opacity="1"><g transform="translate(295.466271, 293.74999)"><g><path d="M 33.8125 -40.3125 L 19.640625 -40.3125 L 19.640625 -21.515625 L 33.8125 -21.515625 C 36.5 -21.515625 38.296875 -22.164062 39.203125 -23.46875 C 40.109375 -24.769531 40.5625 -26.613281 40.5625 -29 L 40.5625 -33.546875 C 40.5625 -35.535156 40.007812 -37.160156 38.90625 -38.421875 C 37.800781 -39.679688 36.101562 -40.3125 33.8125 -40.3125 Z M 26.65625 -35.109375 L 31.53125 -35.109375 C 32.65625 -35.109375 33.410156 -34.816406 33.796875 -34.234375 C 34.191406 -33.648438 34.390625 -32.921875 34.390625 -32.046875 L 34.390625 -29.84375 C 34.390625 -28.976562 34.191406 -28.25 33.796875 -27.65625 C 33.410156 -27.070312 32.65625 -26.78125 31.53125 -26.78125 L 26.65625 -26.78125 Z M 19.640625 -5.84375 L 18.984375 -5.84375 L 18.984375 -40.953125 L 33.8125 -40.953125 C 36.320312 -40.953125 38.179688 -40.25 39.390625 -38.84375 C 40.609375 -37.4375 41.21875 -35.671875 41.21875 -33.546875 L 41.21875 -29.0625 C 41.21875 -27.070312 40.957031 -25.4375 40.4375 -24.15625 C 39.914062 -22.875 38.875 -21.992188 37.3125 -21.515625 L 38.03125 -21.515625 C 40.675781 -21.515625 42.648438 -20.914062 43.953125 -19.71875 C 45.253906 -18.53125 45.90625 -16.8125 45.90625 -14.5625 L 45.90625 -5.84375 L 45.25 -5.84375 L 45.25 -14.5625 C 45.25 -16.6875 44.660156 -18.28125 43.484375 -19.34375 C 42.316406 -20.40625 40.5 -20.9375 38.03125 -20.9375 L 19.640625 -20.9375 Z M 24.3125 0 C 25.132812 0 25.726562 -0.179688 26.09375 -0.546875 C 26.46875 -0.921875 26.65625 -1.519531 26.65625 -2.34375 L 26.65625 -15.078125 L 35.765625 -15.078125 C 36.671875 -15.078125 37.304688 -14.847656 37.671875 -14.390625 C 38.046875 -13.941406 38.234375 -13.238281 38.234375 -12.28125 L 38.234375 -2.34375 C 38.234375 -1.519531 38.414062 -0.921875 38.78125 -0.546875 C 39.144531 -0.179688 39.738281 0 40.5625 0 L 50.640625 0 C 51.460938 0 52.054688 -0.179688 52.421875 -0.546875 C 52.796875 -0.921875 52.984375 -1.519531 52.984375 -2.34375 L 52.984375 -16.125 C 52.984375 -18.851562 52.253906 -21.039062 50.796875 -22.6875 C 49.347656 -24.332031 47.457031 -25.285156 45.125 -25.546875 C 46.46875 -26.109375 47.410156 -27.03125 47.953125 -28.3125 C 48.492188 -29.59375 48.765625 -31.144531 48.765625 -32.96875 L 48.765625 -35.953125 C 48.765625 -39.160156 47.84375 -41.769531 46 -43.78125 C 44.15625 -45.800781 40.804688 -46.8125 35.953125 -46.8125 L 14.296875 -46.8125 C 13.472656 -46.8125 12.878906 -46.625 12.515625 -46.25 C 12.148438 -45.882812 11.96875 -45.289062 11.96875 -44.46875 L 11.96875 -2.34375 C 11.96875 -1.519531 12.148438 -0.921875 12.515625 -0.546875 C 12.878906 -0.179688 13.472656 0 14.296875 0 Z M 26.390625 0.0625 L 17.9375 7.09375 C 17.769531 7.257812 17.5 7.40625 17.125 7.53125 C 16.757812 7.664062 16.359375 7.734375 15.921875 7.734375 L 5.921875 7.734375 C 4.878906 7.734375 4.117188 7.492188 3.640625 7.015625 C 3.160156 6.546875 2.921875 5.789062 2.921875 4.75 L 2.921875 -37.390625 C 2.921875 -37.953125 2.992188 -38.425781 3.140625 -38.8125 C 3.296875 -39.207031 3.523438 -39.535156 3.828125 -39.796875 L 12.21875 -46.875 C 12.4375 -47.050781 12.726562 -47.191406 13.09375 -47.296875 C 13.46875 -47.410156 13.867188 -47.46875 14.296875 -47.46875 L 35.953125 -47.46875 C 41.109375 -47.46875 44.640625 -46.394531 46.546875 -44.25 C 48.453125 -42.101562 49.40625 -39.335938 49.40625 -35.953125 L 49.40625 -32.96875 C 49.40625 -31.363281 49.207031 -29.960938 48.8125 -28.765625 C 48.425781 -27.578125 47.800781 -26.613281 46.9375 -25.875 L 46.875 -25.875 C 48.914062 -25.3125 50.550781 -24.179688 51.78125 -22.484375 C 53.019531 -20.796875 53.640625 -18.675781 53.640625 -16.125 L 53.640625 -2.34375 C 53.640625 -1.78125 53.5625 -1.300781 53.40625 -0.90625 C 53.257812 -0.519531 53.035156 -0.195312 52.734375 0.0625 L 44.28125 7.09375 C 44.101562 7.257812 43.828125 7.40625 43.453125 7.53125 C 43.085938 7.664062 42.691406 7.734375 42.265625 7.734375 L 32.1875 7.734375 C 31.144531 7.734375 30.382812 7.492188 29.90625 7.015625 C 29.425781 6.546875 29.1875 5.789062 29.1875 4.75 L 29.1875 -5.203125 C 29.1875 -5.890625 29.054688 -6.414062 28.796875 -6.78125 C 28.535156 -7.15625 28.0625 -7.34375 27.375 -7.34375 L 27.3125 -7.34375 L 27.3125 -2.34375 C 27.3125 -1.78125 27.234375 -1.300781 27.078125 -0.90625 C 26.921875 -0.519531 26.691406 -0.195312 26.390625 0.0625 Z M 26.390625 0.0625 "/></g></g></g></svg>