<svg xmlns="http://www.w3.org/2000/svg" xmlns:xlink="http://www.w3.org/1999/xlink" width="500" zoomAndPan="magnify" viewBox="0 0 375 374.999991" height="500" preserveAspectRatio="xMidYMid meet" version="1.0"><defs><clipPath id="6ea5b02d72"><path d="M 37.5 37.5 L 337.5 37.5 L 337.5 337.5 L 37.5 337.5 Z M 37.5 37.5 " clip-rule="nonzero"/></clipPath></defs><g clip-path="url(#6ea5b02d72)"><path fill="#009846" d="M 337.5 187.5 C 337.5 270.34375 270.34375 337.5 187.5 337.5 C 104.65625 337.5 37.5 270.34375 37.5 187.5 C 37.5 104.65625 104.65625 37.5 187.5 37.5 C 270.34375 37.5 337.5 104.65625 337.5 187.5 " fill-opacity="1" fill-rule="nonzero"/></g><path fill="#ffdf00" d="M 51.15625 185.203125 L 187.015625 97.417969 L 323.515625 184.996094 L 187.300781 273.519531 L 51.15625 185.203125 " fill-opacity="1" fill-rule="nonzero"/><path fill="#002279" d="M 245.003906 184.949219 C 245.003906 217.125 219.234375 243.207031 187.449219 243.207031 C 155.664062 243.207031 129.894531 217.125 129.894531 184.949219 C 129.894531 152.769531 155.664062 126.6875 187.449219 126.6875 C 219.234375 126.6875 245.003906 152.769531 245.003906 184.949219 " fill-opacity="1" fill-rule="nonzero"/><path fill="#ffffff" d="M 182.121094 162.027344 C 221.480469 170.410156 244.355469 193.714844 244.355469 193.714844 C 243.742188 198.253906 242.226562 202.945312 242.226562 202.945312 C 216.921875 178.71875 185.3125 172.179688 185.3125 172.179688 C 157.15625 165.316406 131.742188 170.257812 131.742188 170.257812 C 132.539062 166.96875 134.820312 161.3125 134.820312 161.3125 C 134.820312 161.3125 154.003906 157.71875 182.121094 162.027344 " fill-opacity="1" fill-rule="nonzero"/><path fill="#ffffff" d="M 140.40625 172.082031 L 140.957031 173.804688 L 142.75 173.804688 L 141.296875 174.875 L 141.855469 176.601562 L 140.40625 175.535156 L 138.953125 176.601562 L 139.507812 174.875 L 138.054688 173.804688 L 139.847656 173.804688 L 140.40625 172.082031 " fill-opacity="1" fill-rule="nonzero"/><path fill="#ffffff" d="M 165.402344 185.296875 L 165.886719 186.800781 L 167.445312 186.800781 L 166.183594 187.726562 L 166.664062 189.230469 L 165.402344 188.300781 L 164.136719 189.230469 L 164.621094 187.726562 L 163.359375 186.800781 L 164.921875 186.800781 L 165.402344 185.296875 " fill-opacity="1" fill-rule="nonzero"/><path fill="#ffffff" d="M 151.191406 194.0625 L 151.484375 194.980469 L 152.4375 194.980469 L 151.667969 195.546875 L 151.964844 196.460938 L 151.191406 195.894531 L 150.421875 196.460938 L 150.71875 195.546875 L 149.949219 194.980469 L 150.898438 194.980469 L 151.191406 194.0625 " fill-opacity="1" fill-rule="nonzero"/><path fill="#ffffff" d="M 145.492188 196.441406 L 146.109375 198.359375 L 148.105469 198.359375 L 146.492188 199.546875 L 147.109375 201.46875 L 145.492188 200.28125 L 143.882812 201.46875 L 144.496094 199.546875 L 142.882812 198.359375 L 144.878906 198.359375 L 145.492188 196.441406 " fill-opacity="1" fill-rule="nonzero"/><path fill="#ffffff" d="M 138.351562 202.328125 L 138.808594 203.746094 L 140.28125 203.746094 L 139.085938 204.621094 L 139.542969 206.042969 L 138.351562 205.164062 L 137.160156 206.042969 L 137.613281 204.621094 L 136.421875 203.746094 L 137.898438 203.746094 L 138.351562 202.328125 " fill-opacity="1" fill-rule="nonzero"/><path fill="#ffffff" d="M 157.476562 202.882812 L 157.933594 204.300781 L 159.40625 204.300781 L 158.214844 205.179688 L 158.671875 206.59375 L 157.476562 205.71875 L 156.285156 206.59375 L 156.742188 205.179688 L 155.546875 204.300781 L 157.023438 204.300781 L 157.476562 202.882812 " fill-opacity="1" fill-rule="nonzero"/><path fill="#ffffff" d="M 155.730469 208.730469 L 156.1875 210.144531 L 157.660156 210.144531 L 156.464844 211.023438 L 156.921875 212.441406 L 155.730469 211.566406 L 154.539062 212.441406 L 154.992188 211.023438 L 153.800781 210.144531 L 155.273438 210.144531 L 155.730469 208.730469 " fill-opacity="1" fill-rule="nonzero"/><path fill="#ffffff" d="M 164.242188 213.742188 L 164.75 215.324219 L 166.398438 215.324219 L 165.066406 216.308594 L 165.574219 217.894531 L 164.242188 216.910156 L 162.910156 217.894531 L 163.417969 216.308594 L 162.085938 215.324219 L 163.734375 215.324219 L 164.242188 213.742188 " fill-opacity="1" fill-rule="nonzero"/><path fill="#ffffff" d="M 187.265625 209.046875 L 187.773438 210.632812 L 189.421875 210.632812 L 188.089844 211.613281 L 188.597656 213.199219 L 187.265625 212.222656 L 185.933594 213.199219 L 186.441406 211.613281 L 185.109375 210.632812 L 186.753906 210.632812 L 187.265625 209.046875 " fill-opacity="1" fill-rule="nonzero"/><path fill="#ffffff" d="M 194.027344 197.585938 L 194.496094 199.054688 L 196.023438 199.054688 L 194.789062 199.960938 L 195.261719 201.433594 L 194.027344 200.523438 L 192.792969 201.433594 L 193.265625 199.960938 L 192.03125 199.054688 L 193.554688 199.054688 L 194.027344 197.585938 " fill-opacity="1" fill-rule="nonzero"/><path fill="#ffffff" d="M 187.265625 192.277344 L 187.734375 193.746094 L 189.261719 193.746094 L 188.027344 194.65625 L 188.496094 196.121094 L 187.265625 195.21875 L 186.03125 196.121094 L 186.5 194.65625 L 185.269531 193.746094 L 186.792969 193.746094 L 187.265625 192.277344 " fill-opacity="1" fill-rule="nonzero"/><path fill="#ffffff" d="M 181.453125 197.621094 L 181.871094 198.921875 L 183.21875 198.921875 L 182.125 199.726562 L 182.546875 201.027344 L 181.453125 200.222656 L 180.359375 201.027344 L 180.777344 199.726562 L 179.683594 198.921875 L 181.035156 198.921875 L 181.453125 197.621094 " fill-opacity="1" fill-rule="nonzero"/><path fill="#ffffff" d="M 184.339844 202.289062 L 184.648438 203.257812 L 185.652344 203.257812 L 184.84375 203.851562 L 185.148438 204.820312 L 184.339844 204.222656 L 183.527344 204.820312 L 183.839844 203.851562 L 183.027344 203.257812 L 184.03125 203.257812 L 184.339844 202.289062 " fill-opacity="1" fill-rule="nonzero"/><path fill="#ffffff" d="M 202.972656 180.847656 L 203.28125 181.8125 L 204.285156 181.8125 L 203.472656 182.410156 L 203.78125 183.375 L 202.972656 182.777344 L 202.160156 183.375 L 202.46875 182.410156 L 201.660156 181.8125 L 202.660156 181.8125 L 202.972656 180.847656 " fill-opacity="1" fill-rule="nonzero"/><path fill="#ffffff" d="M 205.175781 164.308594 L 205.75 166.097656 L 207.605469 166.097656 L 206.105469 167.203125 L 206.679688 168.992188 L 205.175781 167.886719 L 203.671875 168.992188 L 204.246094 167.203125 L 202.742188 166.097656 L 204.601562 166.097656 L 205.175781 164.308594 " fill-opacity="1" fill-rule="nonzero"/><path fill="#ffffff" d="M 227.589844 203 L 228.164062 204.789062 L 230.023438 204.789062 L 228.523438 205.894531 L 229.09375 207.679688 L 227.589844 206.578125 L 226.085938 207.679688 L 226.660156 205.894531 L 225.160156 204.789062 L 227.015625 204.789062 L 227.589844 203 " fill-opacity="1" fill-rule="nonzero"/><path fill="#ffffff" d="M 226.375 213.074219 L 226.855469 214.570312 L 228.40625 214.570312 L 227.152344 215.496094 L 227.628906 216.988281 L 226.375 216.066406 L 225.117188 216.988281 L 225.597656 215.496094 L 224.339844 214.570312 L 225.894531 214.570312 L 226.375 213.074219 " fill-opacity="1" fill-rule="nonzero"/><path fill="#ffffff" d="M 229.945312 208.613281 L 230.425781 210.109375 L 231.976562 210.109375 L 230.722656 211.035156 L 231.199219 212.527344 L 229.945312 211.605469 L 228.691406 212.527344 L 229.171875 211.035156 L 227.914062 210.109375 L 229.46875 210.109375 L 229.945312 208.613281 " fill-opacity="1" fill-rule="nonzero"/><path fill="#ffffff" d="M 235.570312 204.230469 L 235.9375 205.371094 L 237.125 205.371094 L 236.164062 206.078125 L 236.527344 207.21875 L 235.570312 206.515625 L 234.609375 207.21875 L 234.976562 206.078125 L 234.015625 205.371094 L 235.203125 205.371094 L 235.570312 204.230469 " fill-opacity="1" fill-rule="nonzero"/><path fill="#ffffff" d="M 221.816406 216.613281 L 222.183594 217.757812 L 223.367188 217.757812 L 222.410156 218.460938 L 222.773438 219.601562 L 221.816406 218.898438 L 220.855469 219.601562 L 221.222656 218.460938 L 220.265625 217.757812 L 221.449219 217.757812 L 221.816406 216.613281 " fill-opacity="1" fill-rule="nonzero"/><path fill="#ffffff" d="M 216.117188 220.929688 L 216.539062 222.242188 L 217.894531 222.242188 L 216.796875 223.050781 L 217.214844 224.363281 L 216.117188 223.554688 L 215.019531 224.363281 L 215.4375 223.050781 L 214.339844 222.242188 L 215.699219 222.242188 L 216.117188 220.929688 " fill-opacity="1" fill-rule="nonzero"/><path fill="#ffffff" d="M 215.738281 215.535156 L 216.085938 216.617188 L 217.214844 216.617188 L 216.300781 217.292969 L 216.648438 218.375 L 215.738281 217.707031 L 214.824219 218.375 L 215.171875 217.292969 L 214.261719 216.617188 L 215.390625 216.617188 L 215.738281 215.535156 " fill-opacity="1" fill-rule="nonzero"/><path fill="#ffffff" d="M 209.507812 217.609375 L 209.851562 218.695312 L 210.984375 218.695312 L 210.070312 219.367188 L 210.417969 220.453125 L 209.507812 219.785156 L 208.59375 220.453125 L 208.941406 219.367188 L 208.027344 218.695312 L 209.160156 218.695312 L 209.507812 217.609375 " fill-opacity="1" fill-rule="nonzero"/><path fill="#ffffff" d="M 200.007812 216.070312 L 200.355469 217.160156 L 201.484375 217.160156 L 200.570312 217.828125 L 200.917969 218.917969 L 200.007812 218.242188 L 199.09375 218.917969 L 199.441406 217.828125 L 198.53125 217.160156 L 199.660156 217.160156 L 200.007812 216.070312 " fill-opacity="1" fill-rule="nonzero"/><path fill="#ffffff" d="M 216.085938 227.308594 L 216.433594 228.398438 L 217.5625 228.398438 L 216.648438 229.066406 L 217 230.15625 L 216.085938 229.484375 L 215.171875 230.15625 L 215.523438 229.066406 L 214.609375 228.398438 L 215.738281 228.398438 L 216.085938 227.308594 " fill-opacity="1" fill-rule="nonzero"/><path fill="#ffffff" d="M 204.613281 222.464844 L 205.035156 223.789062 L 206.40625 223.789062 L 205.296875 224.605469 L 205.722656 225.925781 L 204.613281 225.109375 L 203.5 225.925781 L 203.925781 224.605469 L 202.816406 223.789062 L 204.191406 223.789062 L 204.613281 222.464844 " fill-opacity="1" fill-rule="nonzero"/><path fill="#ffffff" d="M 187.441406 229.773438 L 187.636719 230.386719 L 188.277344 230.386719 L 187.757812 230.773438 L 187.957031 231.386719 L 187.441406 231.003906 L 186.921875 231.386719 L 187.121094 230.773438 L 186.601562 230.386719 L 187.242188 230.386719 L 187.441406 229.773438 " fill-opacity="1" fill-rule="nonzero"/><path fill="#009b2d" d="M 135.660156 165.402344 C 135.902344 166.429688 136.746094 167.242188 137.847656 167.078125 C 138.953125 166.917969 139.394531 165.929688 139.179688 164.832031 C 138.984375 163.875 138.199219 162.945312 136.984375 163.125 C 135.78125 163.300781 135.410156 164.347656 135.660156 165.402344 Z M 139.925781 164.707031 C 140.246094 166.371094 139.285156 167.390625 137.914062 167.59375 C 136.496094 167.804688 135.261719 166.996094 134.902344 165.542969 C 134.527344 164.023438 135.394531 162.832031 136.90625 162.609375 C 138.453125 162.386719 139.648438 163.277344 139.925781 164.707031 " fill-opacity="1" fill-rule="nonzero"/><path fill="#009b2d" d="M 144.015625 164.160156 C 144.261719 164.136719 144.507812 164.113281 144.746094 164.097656 C 145.515625 164.027344 145.949219 163.625 145.871094 163.070312 C 145.785156 162.445312 145.21875 162.207031 144.449219 162.269531 C 144.09375 162.296875 143.851562 162.351562 143.738281 162.390625 C 143.828125 162.976562 143.921875 163.570312 144.015625 164.160156 Z M 142.9375 162.019531 C 143.296875 161.917969 143.820312 161.832031 144.324219 161.789062 C 145.105469 161.722656 145.628906 161.804688 146.019531 162.054688 C 146.332031 162.25 146.535156 162.570312 146.585938 162.945312 C 146.667969 163.585938 146.265625 164.042969 145.707031 164.261719 C 145.707031 164.269531 145.707031 164.277344 145.707031 164.285156 C 146.15625 164.378906 146.453125 164.707031 146.652344 165.203125 C 146.921875 165.867188 147.117188 166.328125 147.25 166.507812 C 147.011719 166.523438 146.769531 166.542969 146.527344 166.558594 C 146.421875 166.425781 146.242188 166.019531 146 165.425781 C 145.746094 164.769531 145.414062 164.539062 144.761719 164.574219 C 144.539062 164.59375 144.316406 164.613281 144.089844 164.632812 C 144.199219 165.335938 144.308594 166.035156 144.421875 166.734375 C 144.1875 166.757812 143.957031 166.777344 143.722656 166.800781 C 143.460938 165.207031 143.199219 163.613281 142.9375 162.019531 " fill-opacity="1" fill-rule="nonzero"/><path fill="#009b2d" d="M 151.113281 165.804688 C 151.296875 165.828125 151.554688 165.828125 151.828125 165.816406 C 153.328125 165.773438 154.09375 165.019531 154.011719 163.703125 C 153.945312 162.550781 153.144531 161.828125 151.601562 161.871094 C 151.222656 161.878906 150.941406 161.917969 150.753906 161.964844 C 150.871094 163.242188 150.992188 164.523438 151.113281 165.804688 Z M 149.980469 161.527344 C 150.417969 161.453125 150.941406 161.390625 151.523438 161.371094 C 152.578125 161.339844 153.339844 161.539062 153.859375 161.933594 C 154.386719 162.324219 154.710938 162.882812 154.761719 163.675781 C 154.804688 164.46875 154.566406 165.121094 154.085938 165.574219 C 153.605469 166.039062 152.789062 166.292969 151.738281 166.328125 C 151.238281 166.34375 150.816406 166.335938 150.460938 166.316406 C 150.300781 164.722656 150.140625 163.125 149.980469 161.527344 " fill-opacity="1" fill-rule="nonzero"/><path fill="#009b2d" d="M 161.027344 164.066406 C 160.3125 164.03125 159.59375 164.007812 158.878906 163.988281 C 158.890625 164.574219 158.902344 165.160156 158.914062 165.742188 C 159.703125 165.765625 160.488281 165.792969 161.273438 165.832031 C 161.273438 166.007812 161.273438 166.183594 161.273438 166.359375 C 160.261719 166.308594 159.246094 166.277344 158.230469 166.253906 C 158.183594 164.628906 158.136719 163.003906 158.089844 161.382812 C 159.113281 161.40625 160.128906 161.441406 161.148438 161.484375 C 161.148438 161.660156 161.148438 161.835938 161.148438 162.011719 C 160.378906 161.976562 159.605469 161.949219 158.835938 161.925781 C 158.84375 162.441406 158.855469 162.953125 158.867188 163.46875 C 159.585938 163.484375 160.304688 163.511719 161.027344 163.546875 C 161.027344 163.71875 161.027344 163.894531 161.027344 164.066406 " fill-opacity="1" fill-rule="nonzero"/><path fill="#009b2d" d="M 169.277344 164.847656 C 169.289062 164.171875 169.296875 163.351562 169.351562 162.75 C 169.34375 162.75 169.332031 162.75 169.324219 162.75 C 169.09375 163.296875 168.820312 163.871094 168.5 164.511719 C 168.121094 165.261719 167.757812 166.011719 167.394531 166.765625 C 167.21875 166.746094 167.039062 166.734375 166.867188 166.71875 C 166.613281 165.921875 166.359375 165.125 166.09375 164.328125 C 165.863281 163.621094 165.667969 162.976562 165.53125 162.390625 C 165.523438 162.390625 165.519531 162.390625 165.511719 162.386719 C 165.472656 162.992188 165.402344 163.804688 165.324219 164.523438 C 165.25 165.214844 165.175781 165.90625 165.105469 166.597656 C 164.882812 166.578125 164.660156 166.5625 164.441406 166.546875 C 164.613281 164.933594 164.789062 163.324219 164.976562 161.714844 C 165.285156 161.738281 165.597656 161.765625 165.90625 161.792969 C 166.191406 162.601562 166.476562 163.410156 166.746094 164.21875 C 166.945312 164.839844 167.105469 165.386719 167.214844 165.90625 C 167.226562 165.90625 167.230469 165.90625 167.238281 165.90625 C 167.402344 165.425781 167.625 164.914062 167.910156 164.328125 C 168.285156 163.578125 168.664062 162.832031 169.054688 162.089844 C 169.363281 162.125 169.671875 162.15625 169.980469 162.191406 C 169.96875 163.816406 169.957031 165.441406 169.9375 167.066406 C 169.710938 167.039062 169.484375 167.015625 169.261719 166.988281 C 169.265625 166.277344 169.273438 165.5625 169.277344 164.847656 " fill-opacity="1" fill-rule="nonzero"/><path fill="#009b2d" d="M 180.59375 166.472656 C 179.890625 166.332031 179.191406 166.195312 178.488281 166.066406 C 178.394531 166.640625 178.304688 167.210938 178.210938 167.785156 C 178.984375 167.929688 179.753906 168.078125 180.523438 168.238281 C 180.488281 168.410156 180.460938 168.582031 180.429688 168.753906 C 179.4375 168.550781 178.4375 168.355469 177.441406 168.179688 C 177.6875 166.585938 177.929688 164.988281 178.171875 163.394531 C 179.171875 163.578125 180.171875 163.765625 181.167969 163.96875 C 181.140625 164.140625 181.109375 164.3125 181.078125 164.484375 C 180.324219 164.332031 179.566406 164.183594 178.808594 164.042969 C 178.730469 164.546875 178.648438 165.050781 178.570312 165.554688 C 179.277344 165.683594 179.980469 165.820312 180.6875 165.964844 C 180.652344 166.132812 180.621094 166.304688 180.59375 166.472656 " fill-opacity="1" fill-rule="nonzero"/><path fill="#009b2d" d="M 188.941406 168.269531 C 189.082031 168.34375 189.265625 168.410156 189.496094 168.476562 C 190.324219 168.707031 190.929688 168.503906 191.109375 167.863281 C 191.285156 167.25 190.863281 166.800781 190.089844 166.585938 C 189.785156 166.503906 189.542969 166.460938 189.414062 166.453125 C 189.257812 167.058594 189.097656 167.664062 188.941406 168.269531 Z M 188.824219 165.828125 C 189.179688 165.867188 189.636719 165.945312 190.199219 166.105469 C 190.894531 166.296875 191.363281 166.585938 191.613281 166.925781 C 191.851562 167.234375 191.929688 167.625 191.808594 168.035156 C 191.6875 168.453125 191.449219 168.742188 191.117188 168.90625 C 190.652344 169.136719 190.023438 169.144531 189.351562 168.957031 C 189.148438 168.898438 188.957031 168.839844 188.8125 168.761719 C 188.648438 169.386719 188.484375 170.007812 188.320312 170.632812 C 188.097656 170.574219 187.871094 170.515625 187.648438 170.453125 C 188.039062 168.910156 188.433594 167.371094 188.824219 165.828125 " fill-opacity="1" fill-rule="nonzero"/><path fill="#009b2d" d="M 195.511719 170.125 C 195.746094 170.203125 195.976562 170.277344 196.207031 170.355469 C 196.933594 170.601562 197.507812 170.417969 197.695312 169.894531 C 197.898438 169.308594 197.492188 168.875 196.765625 168.625 C 196.433594 168.511719 196.1875 168.460938 196.066406 168.449219 C 195.882812 169.007812 195.699219 169.570312 195.511719 170.125 Z M 195.511719 167.8125 C 195.882812 167.863281 196.394531 167.992188 196.871094 168.15625 C 197.609375 168.402344 198.046875 168.683594 198.289062 169.054688 C 198.484375 169.355469 198.523438 169.714844 198.398438 170.066406 C 198.179688 170.667969 197.605469 170.914062 197 170.886719 C 196.996094 170.890625 196.996094 170.898438 196.992188 170.902344 C 197.355469 171.167969 197.480469 171.574219 197.433594 172.089844 C 197.375 172.785156 197.339844 173.265625 197.382812 173.476562 C 197.15625 173.398438 196.929688 173.316406 196.703125 173.238281 C 196.664062 173.082031 196.6875 172.648438 196.738281 172.03125 C 196.804688 171.347656 196.609375 171.011719 196.003906 170.785156 C 195.789062 170.714844 195.578125 170.644531 195.367188 170.574219 C 195.148438 171.234375 194.929688 171.898438 194.710938 172.5625 C 194.488281 172.488281 194.269531 172.414062 194.046875 172.34375 C 194.539062 170.832031 195.023438 169.320312 195.511719 167.8125 " fill-opacity="1" fill-rule="nonzero"/><path fill="#009b2d" d="M 201.6875 172.535156 C 201.308594 173.496094 201.554688 174.578125 202.578125 174.988281 C 203.605469 175.40625 204.550781 174.820312 204.992188 173.816406 C 205.375 172.9375 205.242188 171.789062 204.113281 171.328125 C 202.992188 170.878906 202.078125 171.550781 201.6875 172.535156 Z M 205.699219 174.082031 C 205.015625 175.601562 203.621094 175.960938 202.34375 175.445312 C 201.023438 174.910156 200.445312 173.636719 200.972656 172.273438 C 201.523438 170.84375 202.933594 170.300781 204.339844 170.875 C 205.777344 171.457031 206.285156 172.777344 205.699219 174.082031 " fill-opacity="1" fill-rule="nonzero"/><path fill="#009b2d" d="M 211.550781 179.277344 C 211.222656 179.222656 210.589844 179.09375 209.933594 178.777344 C 209.195312 178.421875 208.667969 177.96875 208.382812 177.335938 C 208.132812 176.777344 208.140625 176.074219 208.46875 175.394531 C 209.09375 174.097656 210.605469 173.617188 212.320312 174.449219 C 212.910156 174.734375 213.316406 175.070312 213.488281 175.269531 C 213.355469 175.394531 213.222656 175.519531 213.089844 175.640625 C 212.875 175.40625 212.582031 175.15625 212.066406 174.910156 C 210.828125 174.308594 209.691406 174.59375 209.167969 175.683594 C 208.632812 176.789062 209.070312 177.785156 210.210938 178.335938 C 210.625 178.539062 210.933594 178.625 211.113281 178.632812 C 211.332031 178.207031 211.558594 177.78125 211.78125 177.355469 C 211.445312 177.1875 211.105469 177.027344 210.769531 176.863281 C 210.847656 176.714844 210.921875 176.5625 210.996094 176.414062 C 211.546875 176.679688 212.09375 176.949219 212.640625 177.222656 C 212.277344 177.90625 211.914062 178.589844 211.550781 179.277344 " fill-opacity="1" fill-rule="nonzero"/><path fill="#009b2d" d="M 216.453125 179.171875 C 216.667969 179.289062 216.882812 179.410156 217.097656 179.527344 C 217.769531 179.894531 218.382812 179.820312 218.667969 179.347656 C 218.996094 178.8125 218.675781 178.316406 218.003906 177.941406 C 217.695312 177.773438 217.460938 177.679688 217.34375 177.648438 C 217.042969 178.15625 216.75 178.664062 216.453125 179.171875 Z M 216.917969 176.917969 C 217.277344 177.039062 217.761719 177.261719 218.203125 177.503906 C 218.890625 177.878906 219.265625 178.234375 219.433594 178.636719 C 219.570312 178.964844 219.535156 179.328125 219.335938 179.644531 C 219 180.1875 218.375 180.320312 217.777344 180.183594 C 217.777344 180.1875 217.769531 180.195312 217.765625 180.203125 C 218.074219 180.519531 218.117188 180.941406 217.964844 181.433594 C 217.769531 182.101562 217.636719 182.5625 217.636719 182.777344 C 217.425781 182.660156 217.214844 182.539062 217.003906 182.417969 C 217 182.261719 217.109375 181.84375 217.285156 181.25 C 217.492188 180.597656 217.363281 180.234375 216.804688 179.90625 C 216.609375 179.796875 216.414062 179.691406 216.214844 179.582031 C 215.863281 180.1875 215.511719 180.792969 215.160156 181.398438 C 214.953125 181.289062 214.75 181.175781 214.542969 181.066406 C 215.335938 179.683594 216.125 178.304688 216.917969 176.917969 " fill-opacity="1" fill-rule="nonzero"/><path fill="#009b2d" d="M 224.101562 184.03125 C 223.492188 183.644531 222.882812 183.257812 222.269531 182.886719 C 221.945312 183.367188 221.621094 183.855469 221.296875 184.335938 C 221.96875 184.75 222.636719 185.171875 223.300781 185.597656 C 223.199219 185.742188 223.101562 185.882812 222.996094 186.027344 C 222.144531 185.476562 221.277344 184.9375 220.40625 184.410156 C 221.296875 183.058594 222.183594 181.710938 223.078125 180.359375 C 223.953125 180.886719 224.820312 181.433594 225.683594 181.980469 C 225.582031 182.125 225.480469 182.269531 225.378906 182.414062 C 224.726562 181.996094 224.074219 181.582031 223.410156 181.179688 C 223.128906 181.605469 222.84375 182.027344 222.558594 182.453125 C 223.175781 182.832031 223.785156 183.214844 224.394531 183.605469 C 224.296875 183.746094 224.199219 183.886719 224.101562 184.03125 " fill-opacity="1" fill-rule="nonzero"/><path fill="#009b2d" d="M 226.160156 187.199219 C 226.316406 187.515625 226.613281 187.890625 227.015625 188.167969 C 227.605469 188.582031 228.160156 188.558594 228.460938 188.171875 C 228.742188 187.8125 228.660156 187.4375 228.203125 186.804688 C 227.628906 186.066406 227.402344 185.421875 227.816406 184.871094 C 228.269531 184.261719 229.214844 184.222656 230.121094 184.855469 C 230.601562 185.191406 230.875 185.527344 231.003906 185.773438 C 230.84375 185.867188 230.679688 185.960938 230.519531 186.054688 C 230.425781 185.882812 230.203125 185.550781 229.785156 185.253906 C 229.148438 184.8125 228.664062 184.964844 228.464844 185.230469 C 228.1875 185.589844 228.335938 185.960938 228.8125 186.609375 C 229.390625 187.402344 229.53125 187.992188 229.085938 188.554688 C 228.617188 189.140625 227.710938 189.285156 226.65625 188.554688 C 226.226562 188.253906 225.832031 187.820312 225.695312 187.519531 C 225.851562 187.414062 226.003906 187.304688 226.160156 187.199219 " fill-opacity="1" fill-rule="nonzero"/><path fill="#009b2d" d="M 231.40625 190.960938 C 231.546875 191.289062 231.820312 191.675781 232.210938 191.976562 C 232.78125 192.421875 233.335938 192.429688 233.664062 192.058594 C 233.96875 191.71875 233.90625 191.339844 233.480469 190.683594 C 232.945312 189.914062 232.757812 189.257812 233.203125 188.730469 C 233.6875 188.148438 234.644531 188.160156 235.519531 188.84375 C 235.980469 189.203125 236.234375 189.558594 236.355469 189.804688 C 236.1875 189.890625 236.019531 189.976562 235.855469 190.0625 C 235.765625 189.882812 235.566406 189.539062 235.160156 189.222656 C 234.546875 188.746094 234.050781 188.871094 233.835938 189.125 C 233.539062 189.46875 233.667969 189.847656 234.105469 190.519531 C 234.644531 191.34375 234.75 191.941406 234.269531 192.476562 C 233.765625 193.035156 232.84375 193.128906 231.828125 192.339844 C 231.414062 192.019531 231.042969 191.566406 230.921875 191.257812 C 231.082031 191.160156 231.246094 191.0625 231.40625 190.960938 " fill-opacity="1" fill-rule="nonzero"/><path fill="#009b2d" d="M 238.011719 194.164062 C 237.289062 194.921875 237.125 196.003906 237.964844 196.738281 C 238.808594 197.480469 239.945312 197.269531 240.742188 196.492188 C 241.441406 195.8125 241.734375 194.699219 240.808594 193.886719 C 239.890625 193.082031 238.753906 193.386719 238.011719 194.164062 Z M 241.332031 196.988281 C 240.109375 198.152344 238.617188 198 237.570312 197.082031 C 236.484375 196.128906 236.394531 194.753906 237.414062 193.671875 C 238.476562 192.542969 240.042969 192.527344 241.199219 193.542969 C 242.378906 194.578125 242.382812 195.980469 241.332031 196.988281 " fill-opacity="1" fill-rule="nonzero"/></svg>