<svg xmlns="http://www.w3.org/2000/svg" xmlns:xlink="http://www.w3.org/1999/xlink" width="500" zoomAndPan="magnify" viewBox="0 0 375 374.999991" height="500" preserveAspectRatio="xMidYMid meet" version="1.0"><defs><clipPath id="b3dac34acc"><path d="M 37.5 37.5 L 337.5 37.5 L 337.5 337.5 L 37.5 337.5 Z M 37.5 37.5 " clip-rule="nonzero"/></clipPath><clipPath id="8e8f01e38f"><path d="M 128 37.5 L 247 37.5 L 247 337.5 L 128 337.5 Z M 128 37.5 " clip-rule="nonzero"/></clipPath><clipPath id="93800c4f23"><path d="M 37.5 49 L 129 49 L 129 326 L 37.5 326 Z M 37.5 49 " clip-rule="nonzero"/></clipPath></defs><g clip-path="url(#b3dac34acc)"><path fill="#e92b2b" d="M 187.5 337.5 C 270.34375 337.5 337.5 270.34375 337.5 187.5 C 337.5 104.65625 270.34375 37.5 187.5 37.5 C 104.65625 37.5 37.5 104.65625 37.5 187.5 C 37.5 270.34375 104.65625 337.5 187.5 337.5 Z M 187.5 337.5 " fill-opacity="1" fill-rule="evenodd"/></g><g clip-path="url(#8e8f01e38f)"><path fill="#fbfbfb" d="M 246.429688 325.480469 C 228.339844 333.21875 208.417969 337.5 187.5 337.5 C 166.582031 337.5 146.660156 333.21875 128.570312 325.480469 L 128.570312 49.519531 C 146.660156 41.78125 166.582031 37.5 187.5 37.5 C 208.417969 37.5 228.339844 41.78125 246.429688 49.519531 Z M 246.429688 325.480469 " fill-opacity="1" fill-rule="evenodd"/></g><g clip-path="url(#93800c4f23)"><path fill="#2a2faf" d="M 128.570312 49.515625 C 75.023438 72.414062 37.5 125.574219 37.5 187.5 C 37.5 249.421875 75.023438 302.582031 128.570312 325.480469 Z M 128.570312 49.515625 " fill-opacity="1" fill-rule="evenodd"/></g></svg>