<svg xmlns="http://www.w3.org/2000/svg" xmlns:xlink="http://www.w3.org/1999/xlink" width="500" zoomAndPan="magnify" viewBox="0 0 375 374.999991" height="500" preserveAspectRatio="xMidYMid meet" version="1.0"><defs><clipPath id="f1d09930e6"><path d="M 37.5 37.6875 L 337.5 37.6875 L 337.5 337.6875 L 37.5 337.6875 Z M 37.5 37.6875 " clip-rule="nonzero"/></clipPath></defs><g clip-path="url(#f1d09930e6)"><path fill="#b5b5b3" d="M 187.5 37.6875 C 104.765625 37.6875 37.6875 104.851562 37.6875 187.6875 C 37.6875 270.539062 104.765625 337.683594 187.5 337.683594 C 270.234375 337.683594 337.3125 270.539062 337.3125 187.6875 C 337.3125 104.851562 270.234375 37.6875 187.5 37.6875 " fill-opacity="1" fill-rule="nonzero"/></g><path fill="#ffffff" d="M 187.5 258.09375 C 148.664062 258.09375 117.191406 226.574219 117.191406 187.6875 C 117.191406 148.8125 148.664062 117.292969 187.5 117.292969 C 226.335938 117.292969 257.808594 148.8125 257.808594 187.6875 C 257.808594 226.574219 226.335938 258.09375 187.5 258.09375 Z M 187.5 41.582031 C 106.910156 41.582031 41.574219 107 41.574219 187.6875 C 41.574219 268.386719 106.910156 333.792969 187.5 333.792969 C 268.089844 333.792969 333.425781 268.386719 333.425781 187.6875 C 333.425781 107 268.089844 41.582031 187.5 41.582031 " fill-opacity="1" fill-rule="nonzero"/><path fill="#ed1d24" d="M 187.5 117.292969 C 148.664062 117.292969 117.191406 148.8125 117.191406 187.6875 C 117.191406 226.574219 148.664062 258.09375 187.5 258.09375 C 226.335938 258.09375 257.808594 226.574219 257.808594 187.6875 C 257.808594 148.8125 226.335938 117.292969 187.5 117.292969 " fill-opacity="1" fill-rule="nonzero"/></svg>