<svg xmlns="http://www.w3.org/2000/svg" xmlns:xlink="http://www.w3.org/1999/xlink" width="500" zoomAndPan="magnify" viewBox="0 0 375 374.999991" height="500" preserveAspectRatio="xMidYMid meet" version="1.0"><defs><clipPath id="ea6f6ed76b"><path d="M 36.746094 174 L 337.496094 174 L 337.496094 200 L 36.746094 200 Z M 36.746094 174 " clip-rule="nonzero"/></clipPath><clipPath id="3921d6047a"><path d="M 102 311 L 272 311 L 272 336.75 L 102 336.75 Z M 102 311 " clip-rule="nonzero"/></clipPath><clipPath id="aeb63bef5a"><path d="M 102 37.5 L 272 37.5 L 272 64 L 102 64 Z M 102 37.5 " clip-rule="nonzero"/></clipPath><clipPath id="8650cc5bd4"><path d="M 36.746094 37.5 L 201 37.5 L 201 200 L 36.746094 200 Z M 36.746094 37.5 " clip-rule="nonzero"/></clipPath></defs><path fill="#ac2037" d="M 40.550781 153.933594 L 333.714844 153.933594 C 331.804688 145.464844 329.183594 137.273438 325.914062 129.414062 L 48.351562 129.414062 C 45.082031 137.273438 42.457031 145.464844 40.550781 153.933594 " fill-opacity="1" fill-rule="nonzero"/><g clip-path="url(#ea6f6ed76b)"><path fill="#ac2037" d="M 36.867188 187.117188 C 36.867188 191.246094 37.039062 195.332031 37.367188 199.375 L 336.898438 199.375 C 337.226562 195.332031 337.398438 191.246094 337.398438 187.117188 C 337.398438 182.988281 337.226562 178.902344 336.898438 174.859375 L 37.367188 174.859375 C 37.039062 178.902344 36.867188 182.988281 36.867188 187.117188 " fill-opacity="1" fill-rule="nonzero"/></g><path fill="#ac2037" d="M 48.351562 244.820312 L 325.914062 244.820312 C 329.183594 236.960938 331.804688 228.769531 333.714844 220.300781 L 40.550781 220.300781 C 42.457031 228.769531 45.082031 236.960938 48.351562 244.820312 " fill-opacity="1" fill-rule="nonzero"/><path fill="#ac2037" d="M 77.867188 290.261719 L 296.398438 290.261719 C 303.46875 282.777344 309.773438 274.5625 315.199219 265.746094 L 59.0625 265.746094 C 64.488281 274.5625 70.792969 282.777344 77.867188 290.261719 " fill-opacity="1" fill-rule="nonzero"/><path fill="#ac2037" d="M 59.0625 108.492188 L 315.199219 108.492188 C 309.777344 99.675781 303.46875 91.460938 296.398438 83.972656 L 77.863281 83.972656 C 70.792969 91.460938 64.488281 99.675781 59.0625 108.492188 " fill-opacity="1" fill-rule="nonzero"/><g clip-path="url(#3921d6047a)"><path fill="#ac2037" d="M 102.347656 311.1875 C 122.890625 325.253906 147.105469 334.347656 173.261719 336.742188 L 201.003906 336.742188 C 227.15625 334.347656 251.371094 325.253906 271.914062 311.1875 L 102.347656 311.1875 " fill-opacity="1" fill-rule="nonzero"/></g><g clip-path="url(#aeb63bef5a)"><path fill="#ac2037" d="M 271.917969 63.046875 C 251.371094 48.980469 227.152344 39.886719 200.996094 37.492188 L 173.265625 37.492188 C 147.109375 39.886719 122.894531 48.980469 102.347656 63.046875 L 271.917969 63.046875 " fill-opacity="1" fill-rule="nonzero"/></g><path fill="#ffffff" d="M 77.863281 83.972656 L 296.398438 83.972656 C 289.019531 76.160156 280.8125 69.136719 271.917969 63.046875 L 102.347656 63.046875 C 93.453125 69.136719 85.242188 76.160156 77.863281 83.972656 " fill-opacity="1" fill-rule="nonzero"/><path fill="#ffffff" d="M 48.351562 129.417969 L 325.910156 129.417969 C 322.878906 122.132812 319.292969 115.140625 315.199219 108.492188 L 59.0625 108.492188 C 54.96875 115.140625 51.382812 122.132812 48.351562 129.417969 " fill-opacity="1" fill-rule="nonzero"/><path fill="#ffffff" d="M 37.367188 174.859375 L 336.898438 174.859375 C 336.324219 167.730469 335.25 160.746094 333.714844 153.933594 L 40.550781 153.933594 C 39.015625 160.746094 37.941406 167.730469 37.367188 174.859375 " fill-opacity="1" fill-rule="nonzero"/><path fill="#ffffff" d="M 40.550781 220.300781 L 333.714844 220.300781 C 335.25 213.488281 336.324219 206.503906 336.898438 199.375 L 37.367188 199.375 C 37.941406 206.503906 39.015625 213.488281 40.550781 220.300781 " fill-opacity="1" fill-rule="nonzero"/><path fill="#ffffff" d="M 59.0625 265.746094 L 315.199219 265.746094 C 319.292969 259.09375 322.878906 252.105469 325.910156 244.820312 L 48.351562 244.820312 C 51.382812 252.105469 54.972656 259.09375 59.0625 265.746094 " fill-opacity="1" fill-rule="nonzero"/><path fill="#ffffff" d="M 102.347656 311.1875 L 271.914062 311.1875 C 280.8125 305.097656 289.019531 298.078125 296.398438 290.261719 L 77.867188 290.261719 C 85.246094 298.078125 93.453125 305.097656 102.347656 311.1875 " fill-opacity="1" fill-rule="nonzero"/><g clip-path="url(#8650cc5bd4)"><path fill="#22325e" d="M 200.519531 37.492188 L 173.265625 37.492188 C 96.777344 44.492188 36.867188 108.804688 36.867188 187.117188 C 36.867188 191.246094 37.039062 195.332031 37.367188 199.375 L 200.519531 199.375 L 200.519531 37.492188 " fill-opacity="1" fill-rule="nonzero"/></g><path fill="#ffffff" d="M 59.871094 175.414062 L 62.386719 180.507812 L 68.011719 181.328125 L 63.941406 185.292969 L 64.902344 190.894531 L 59.871094 188.25 L 54.839844 190.894531 L 55.800781 185.292969 L 51.734375 181.328125 L 57.355469 180.507812 L 59.871094 175.414062 " fill-opacity="1" fill-rule="nonzero"/><path fill="#ffffff" d="M 59.871094 143.054688 L 62.386719 148.148438 L 68.011719 148.96875 L 63.941406 152.933594 L 64.902344 158.535156 L 59.871094 155.890625 L 54.839844 158.535156 L 55.800781 152.933594 L 51.734375 148.96875 L 57.355469 148.148438 L 59.871094 143.054688 " fill-opacity="1" fill-rule="nonzero"/><path fill="#ffffff" d="M 64.902344 110.695312 L 67.417969 115.789062 L 73.042969 116.609375 L 68.972656 120.574219 L 69.933594 126.175781 L 64.902344 123.53125 L 59.871094 126.175781 L 60.832031 120.574219 L 56.765625 116.609375 L 62.386719 115.789062 L 64.902344 110.695312 " fill-opacity="1" fill-rule="nonzero"/><path fill="#ffffff" d="M 80.65625 159.929688 L 83.167969 165.027344 L 88.792969 165.84375 L 84.726562 169.8125 L 85.683594 175.414062 L 80.65625 172.769531 L 75.625 175.414062 L 76.585938 169.8125 L 72.515625 165.84375 L 78.140625 165.027344 L 80.65625 159.929688 " fill-opacity="1" fill-rule="nonzero"/><path fill="#ffffff" d="M 80.65625 127.574219 L 83.167969 132.667969 L 88.792969 133.484375 L 84.726562 137.453125 L 85.683594 143.054688 L 80.65625 140.410156 L 75.625 143.054688 L 76.585938 137.453125 L 72.515625 133.484375 L 78.140625 132.667969 L 80.65625 127.574219 " fill-opacity="1" fill-rule="nonzero"/><path fill="#ffffff" d="M 80.65625 95.210938 L 83.167969 100.308594 L 88.792969 101.125 L 84.726562 105.09375 L 85.683594 110.695312 L 80.65625 108.050781 L 75.625 110.695312 L 76.585938 105.09375 L 72.515625 101.125 L 78.140625 100.308594 L 80.65625 95.210938 " fill-opacity="1" fill-rule="nonzero"/><path fill="#ffffff" d="M 100.8125 175.414062 L 103.328125 180.507812 L 108.953125 181.328125 L 104.882812 185.292969 L 105.84375 190.894531 L 100.8125 188.25 L 95.78125 190.894531 L 96.742188 185.292969 L 92.671875 181.328125 L 98.296875 180.507812 L 100.8125 175.414062 " fill-opacity="1" fill-rule="nonzero"/><path fill="#ffffff" d="M 100.8125 143.054688 L 103.328125 148.148438 L 108.953125 148.96875 L 104.882812 152.933594 L 105.84375 158.535156 L 100.8125 155.890625 L 95.78125 158.535156 L 96.742188 152.933594 L 92.671875 148.96875 L 98.296875 148.148438 L 100.8125 143.054688 " fill-opacity="1" fill-rule="nonzero"/><path fill="#ffffff" d="M 100.8125 110.695312 L 103.328125 115.789062 L 108.953125 116.609375 L 104.882812 120.574219 L 105.84375 126.175781 L 100.8125 123.53125 L 95.78125 126.175781 L 96.742188 120.574219 L 92.671875 116.609375 L 98.296875 115.789062 L 100.8125 110.695312 " fill-opacity="1" fill-rule="nonzero"/><path fill="#ffffff" d="M 100.8125 78.332031 L 103.328125 83.429688 L 108.953125 84.25 L 104.882812 88.210938 L 105.84375 93.816406 L 100.8125 91.171875 L 95.78125 93.816406 L 96.742188 88.210938 L 92.671875 84.25 L 98.296875 83.429688 L 100.8125 78.332031 " fill-opacity="1" fill-rule="nonzero"/><path fill="#ffffff" d="M 121.59375 159.929688 L 124.109375 165.027344 L 129.734375 165.84375 L 125.667969 169.8125 L 126.625 175.414062 L 121.59375 172.769531 L 116.566406 175.414062 L 117.527344 169.8125 L 113.457031 165.84375 L 119.082031 165.027344 L 121.59375 159.929688 " fill-opacity="1" fill-rule="nonzero"/><path fill="#ffffff" d="M 121.59375 127.574219 L 124.109375 132.667969 L 129.734375 133.484375 L 125.667969 137.453125 L 126.625 143.054688 L 121.59375 140.410156 L 116.566406 143.054688 L 117.527344 137.453125 L 113.457031 133.484375 L 119.082031 132.667969 L 121.59375 127.574219 " fill-opacity="1" fill-rule="nonzero"/><path fill="#ffffff" d="M 121.59375 95.210938 L 124.109375 100.308594 L 129.734375 101.125 L 125.667969 105.09375 L 126.625 110.695312 L 121.59375 108.050781 L 116.566406 110.695312 L 117.527344 105.09375 L 113.457031 101.125 L 119.082031 100.308594 L 121.59375 95.210938 " fill-opacity="1" fill-rule="nonzero"/><path fill="#ffffff" d="M 121.59375 62.851562 L 124.109375 67.949219 L 129.734375 68.765625 L 125.667969 72.734375 L 126.625 78.335938 L 121.59375 75.691406 L 116.566406 78.335938 L 117.527344 72.734375 L 113.457031 68.765625 L 119.082031 67.949219 L 121.59375 62.851562 " fill-opacity="1" fill-rule="nonzero"/><path fill="#ffffff" d="M 141.753906 175.414062 L 144.269531 180.507812 L 149.894531 181.328125 L 145.824219 185.292969 L 146.785156 190.894531 L 141.753906 188.25 L 136.722656 190.894531 L 137.683594 185.292969 L 133.613281 181.328125 L 139.238281 180.507812 L 141.753906 175.414062 " fill-opacity="1" fill-rule="nonzero"/><path fill="#ffffff" d="M 141.753906 143.054688 L 144.269531 148.148438 L 149.894531 148.96875 L 145.824219 152.933594 L 146.785156 158.535156 L 141.753906 155.890625 L 136.722656 158.535156 L 137.683594 152.933594 L 133.613281 148.96875 L 139.238281 148.148438 L 141.753906 143.054688 " fill-opacity="1" fill-rule="nonzero"/><path fill="#ffffff" d="M 141.753906 110.695312 L 144.269531 115.789062 L 149.894531 116.609375 L 145.824219 120.574219 L 146.785156 126.175781 L 141.753906 123.53125 L 136.722656 126.175781 L 137.683594 120.574219 L 133.613281 116.609375 L 139.238281 115.789062 L 141.753906 110.695312 " fill-opacity="1" fill-rule="nonzero"/><path fill="#ffffff" d="M 141.753906 78.332031 L 144.269531 83.429688 L 149.894531 84.25 L 145.824219 88.210938 L 146.785156 93.816406 L 141.753906 91.171875 L 136.722656 93.816406 L 137.683594 88.210938 L 133.613281 84.25 L 139.238281 83.429688 L 141.753906 78.332031 " fill-opacity="1" fill-rule="nonzero"/><path fill="#ffffff" d="M 141.753906 45.972656 L 144.269531 51.070312 L 149.894531 51.886719 L 145.824219 55.855469 L 146.785156 61.457031 L 141.753906 58.8125 L 136.722656 61.457031 L 137.683594 55.855469 L 133.613281 51.886719 L 139.238281 51.070312 L 141.753906 45.972656 " fill-opacity="1" fill-rule="nonzero"/><path fill="#ffffff" d="M 162.535156 159.929688 L 165.050781 165.027344 L 170.675781 165.84375 L 166.605469 169.8125 L 167.566406 175.414062 L 162.535156 172.769531 L 157.503906 175.414062 L 158.464844 169.8125 L 154.398438 165.84375 L 160.019531 165.027344 L 162.535156 159.929688 " fill-opacity="1" fill-rule="nonzero"/><path fill="#ffffff" d="M 162.535156 127.574219 L 165.050781 132.667969 L 170.675781 133.484375 L 166.605469 137.453125 L 167.566406 143.054688 L 162.535156 140.410156 L 157.503906 143.054688 L 158.464844 137.453125 L 154.398438 133.484375 L 160.019531 132.667969 L 162.535156 127.574219 " fill-opacity="1" fill-rule="nonzero"/><path fill="#ffffff" d="M 162.535156 95.210938 L 165.050781 100.308594 L 170.675781 101.125 L 166.605469 105.09375 L 167.566406 110.695312 L 162.535156 108.050781 L 157.503906 110.695312 L 158.464844 105.09375 L 154.398438 101.125 L 160.019531 100.308594 L 162.535156 95.210938 " fill-opacity="1" fill-rule="nonzero"/><path fill="#ffffff" d="M 162.535156 62.851562 L 165.050781 67.949219 L 170.675781 68.765625 L 166.605469 72.734375 L 167.566406 78.335938 L 162.535156 75.691406 L 157.503906 78.335938 L 158.464844 72.734375 L 154.394531 68.765625 L 160.019531 67.949219 L 162.535156 62.851562 " fill-opacity="1" fill-rule="nonzero"/><path fill="#ffffff" d="M 182.695312 175.414062 L 185.207031 180.507812 L 190.832031 181.328125 L 186.761719 185.292969 L 187.722656 190.894531 L 182.695312 188.25 L 177.664062 190.894531 L 178.625 185.292969 L 174.554688 181.328125 L 180.179688 180.507812 L 182.695312 175.414062 " fill-opacity="1" fill-rule="nonzero"/><path fill="#ffffff" d="M 182.695312 143.054688 L 185.207031 148.148438 L 190.832031 148.96875 L 186.761719 152.933594 L 187.722656 158.535156 L 182.695312 155.890625 L 177.664062 158.535156 L 178.625 152.933594 L 174.554688 148.96875 L 180.179688 148.148438 L 182.695312 143.054688 " fill-opacity="1" fill-rule="nonzero"/><path fill="#ffffff" d="M 182.695312 110.695312 L 185.207031 115.789062 L 190.832031 116.609375 L 186.761719 120.574219 L 187.722656 126.175781 L 182.695312 123.53125 L 177.664062 126.175781 L 178.625 120.574219 L 174.554688 116.609375 L 180.179688 115.789062 L 182.695312 110.695312 " fill-opacity="1" fill-rule="nonzero"/><path fill="#ffffff" d="M 182.695312 78.332031 L 185.210938 83.429688 L 190.835938 84.25 L 186.765625 88.210938 L 187.722656 93.816406 L 182.695312 91.171875 L 177.664062 93.816406 L 178.625 88.210938 L 174.554688 84.25 L 180.179688 83.429688 L 182.695312 78.332031 " fill-opacity="1" fill-rule="nonzero"/><path fill="#ffffff" d="M 182.695312 45.972656 L 185.207031 51.070312 L 190.832031 51.886719 L 186.765625 55.855469 L 187.722656 61.457031 L 182.695312 58.8125 L 177.664062 61.457031 L 178.625 55.855469 L 174.554688 51.886719 L 180.179688 51.070312 L 182.695312 45.972656 " fill-opacity="1" fill-rule="nonzero"/></svg>