<svg xmlns="http://www.w3.org/2000/svg" xmlns:xlink="http://www.w3.org/1999/xlink" width="500" zoomAndPan="magnify" viewBox="0 0 375 374.999991" height="500" preserveAspectRatio="xMidYMid meet" version="1.0"><defs><clipPath id="422c704970"><path d="M 37.5 37.5 L 337.5 37.5 L 337.5 138 L 37.5 138 Z M 37.5 37.5 " clip-rule="nonzero"/></clipPath><clipPath id="fda67505ac"><path d="M 187.5 37.5 C 270.34375 37.5 337.5 104.65625 337.5 187.5 C 337.5 270.34375 270.34375 337.5 187.5 337.5 C 104.65625 337.5 37.5 270.34375 37.5 187.5 C 37.5 104.65625 104.65625 37.5 187.5 37.5 Z M 187.5 37.5 " clip-rule="evenodd"/></clipPath><clipPath id="d15165069d"><path d="M 37.5 137 L 337.5 137 L 337.5 238 L 37.5 238 Z M 37.5 137 " clip-rule="nonzero"/></clipPath><clipPath id="1fc50f6200"><path d="M 187.5 37.5 C 270.34375 37.5 337.5 104.65625 337.5 187.5 C 337.5 270.34375 270.34375 337.5 187.5 337.5 C 104.65625 337.5 37.5 270.34375 37.5 187.5 C 37.5 104.65625 104.65625 37.5 187.5 37.5 Z M 187.5 37.5 " clip-rule="evenodd"/></clipPath><clipPath id="c5ca12f79c"><path d="M 37.5 237 L 337.5 237 L 337.5 337.5 L 37.5 337.5 Z M 37.5 237 " clip-rule="nonzero"/></clipPath><clipPath id="7c49acb4d5"><path d="M 187.5 37.5 C 270.34375 37.5 337.5 104.65625 337.5 187.5 C 337.5 270.34375 270.34375 337.5 187.5 337.5 C 104.65625 337.5 37.5 270.34375 37.5 187.5 C 37.5 104.65625 104.65625 37.5 187.5 37.5 Z M 187.5 37.5 " clip-rule="evenodd"/></clipPath></defs><g clip-path="url(#422c704970)"><g clip-path="url(#fda67505ac)"><path fill="#000000" d="M -62.5 37.5 L 437.5 37.5 L 437.5 137.5 L -62.5 137.5 Z M -62.5 37.5 " fill-opacity="1" fill-rule="evenodd"/></g></g><g clip-path="url(#d15165069d)"><g clip-path="url(#1fc50f6200)"><path fill="#e5271a" d="M -62.5 137.5 L 437.5 137.5 L 437.5 237.5 L -62.5 237.5 Z M -62.5 137.5 " fill-opacity="1" fill-rule="evenodd"/></g></g><g clip-path="url(#c5ca12f79c)"><g clip-path="url(#7c49acb4d5)"><path fill="#fccc00" d="M -62.5 237.5 L 437.5 237.5 L 437.5 337.5 L -62.5 337.5 Z M -62.5 237.5 " fill-opacity="1" fill-rule="evenodd"/></g></g></svg>